<?xml version="1.0" encoding="UTF-8"?>
<svg width="256px" height="167px" viewBox="0 0 256 167" version="1.1" xmlns="http://www.w3.org/2000/svg" xmlns:xlink="http://www.w3.org/1999/xlink">
    <title>undraw_Faq_re_31cw</title>
    <g id="页面-1" stroke="none" stroke-width="1" fill="none" fill-rule="evenodd">
        <g id="画板" transform="translate(-1335.000000, -229.000000)" fill-rule="nonzero">
            <g id="undraw_Faq_re_31cw" transform="translate(1335.000000, 229.000000)">
                <circle id="椭圆形" fill="#2F2E41" transform="translate(209.425463, 137.016176) rotate(-45.000000) translate(-209.425463, -137.016176) " cx="209.425463" cy="137.016176" r="21.0861873"></circle>
                <ellipse id="椭圆形" fill="#FFFFFF" transform="translate(207.750966, 131.918144) rotate(-12.481250) translate(-207.750966, -131.918144) " cx="207.750966" cy="131.918144" rx="7.20500223" ry="7.20836928"></ellipse>
                <ellipse id="椭圆形" fill="#3F3D56" transform="translate(204.832453, 130.056529) rotate(-12.481250) translate(-204.832453, -130.056529) " cx="204.832453" cy="130.056529" rx="2.40167557" ry="2.40279792"></ellipse>
                <path d="M208.555503,123 C199.99511,122.984292 193.985698,121.47589 194,113.824982 C194.014353,106.174075 200.965547,99.9844134 209.525955,100 C218.086363,100.015646 225.014306,106.230579 225,113.881487 C224.985616,121.532433 217.115892,123.015466 208.555503,123 Z" id="路径" fill="#F9A826"></path>
                <path d="M243.137921,140.630567 C240.638787,149.202764 233.341628,155.203397 225.729769,160.300849 C224.666948,161.012743 223.60379,161.708246 222.540297,162.387357 C222.533089,162.390468 222.525669,162.397139 222.518373,162.400313 C222.467209,162.432814 222.415941,162.465364 222.36827,162.49809 C222.148774,162.637973 221.929204,162.777963 221.711534,162.916272 L221.831101,162.969378 C221.831101,162.969378 221.948511,163.031108 221.820055,162.979278 C221.781827,162.963465 221.741773,162.949266 221.703624,162.933366 C217.281614,161.169978 212.781065,159.276646 209.392244,155.973243 C205.876863,152.542879 203.822483,147.162501 205.726032,142.655981 C205.976237,142.065674 206.292277,141.504814 206.668287,140.983811 C206.822694,140.765348 206.988988,140.556257 207.162128,140.351045 C209.300083,137.771077 212.68033,136.53352 216.002099,137.114604 C219.323869,137.695688 222.06947,140.004851 223.182355,143.153495 C223.741581,138.005328 219.448185,133.692972 215.316413,130.511086 C211.182826,127.33081 206.485912,123.867417 205.686775,118.747828 C205.240508,115.899358 206.242321,113.138917 208.067252,110.922924 C208.123749,110.855594 208.180171,110.788352 208.238359,110.722881 C210.459831,108.141905 213.584307,106.484553 216.9877,106.081868 C223.326028,105.430546 229.482737,108.747766 234.087394,113.105081 C241.498575,120.115713 245.978952,130.884021 243.137921,140.630567 Z" id="路径" fill="#E6E6E6"></path>
                <path d="M230.526522,129.614489 C231.741514,131.47524 232.674343,133.500457 233.295561,135.626211 C233.820901,137.526188 234.054715,139.492802 233.98925,141.46084 C233.819784,145.510541 232.664811,149.460964 230.62148,152.97982 C229.082291,155.649394 227.206499,158.116768 225.038698,160.323287 C223.977147,161.031174 222.91526,161.722762 221.853036,162.398051 C221.845838,162.401144 221.838426,162.407778 221.831139,162.410934 C221.780036,162.443252 221.728829,162.475619 221.681215,162.50816 C221.461982,162.647256 221.242674,162.786459 221.025264,162.923988 C221.025264,162.923988 221.261958,163.038178 221.133655,162.98664 C221.095473,162.970916 221.055467,162.956797 221.017364,162.940986 C221.820616,156.458485 219.380419,149.99508 214.471294,145.602265 C212.046166,143.470359 209.14351,141.932813 206,141.114992 C206.154222,140.89776 206.320317,140.689846 206.49325,140.485788 C207.707334,140.820914 208.88894,141.261049 210.024264,141.801051 C214.082681,143.719466 217.405753,146.873159 219.501609,150.795326 C221.382362,154.356807 222.191813,158.372558 221.834918,162.371073 C222.016389,162.209197 222.198067,162.043804 222.374291,161.879978 C225.730529,158.799887 228.711533,155.264448 230.728982,151.18425 C232.47925,147.728893 233.339482,143.90289 233.23391,140.043226 C233.069262,135.834709 231.365792,131.936541 228.899373,128.542955 C226.196174,124.922465 223.002751,121.682814 219.407838,118.914019 C215.784959,116.057685 211.82061,113.648474 207.603177,111.740098 C207.405625,111.649343 207.315079,111.422039 207.397309,111.223294 C207.425433,111.137417 207.486848,111.065934 207.568211,111.024377 C207.653016,110.988375 207.749875,110.992424 207.831274,111.035374 C208.351985,111.27134 208.86908,111.510536 209.382029,111.760067 C213.654427,113.838737 217.647939,116.43181 221.270822,119.479715 C224.770284,122.416552 228.064841,125.771877 230.526522,129.614489 Z" id="路径" fill="#FFFFFF"></path>
                <ellipse id="椭圆形" fill="#2F2E41" cx="36.5" cy="162" rx="5.5" ry="2"></ellipse>
                <ellipse id="椭圆形" fill="#2F2E41" cx="48.5" cy="162" rx="5.5" ry="2"></ellipse>
                <ellipse id="椭圆形" fill="#2F2E41" transform="translate(64.241623, 127.539201) rotate(-29.962570) translate(-64.241623, -127.539201) " cx="64.241623" cy="127.539201" rx="10.5417466" ry="3.31022551"></ellipse>
                <ellipse id="椭圆形" fill="#2F2E41" transform="translate(40.351327, 134.161413) rotate(-80.782520) translate(-40.351327, -134.161413) " cx="40.3513266" cy="134.161413" rx="21.0913559" ry="21.0810467"></ellipse>
                <rect id="矩形" fill="#2F2E41" x="31" y="151" width="6" height="11"></rect>
                <rect id="矩形" fill="#2F2E41" x="44" y="151" width="6" height="11"></rect>
                <circle id="椭圆形" fill="#FFFFFF" cx="41" cy="129" r="7"></circle>
                <circle id="椭圆形" fill="#3F3D56" cx="40.5" cy="128.5" r="2.5"></circle>
                <path d="M20.3107689,114.451631 C18.6134296,106.901852 24.0391628,99.2731138 32.4294802,97.4123645 C40.8197977,95.5516151 48.997467,100.163499 50.6948063,107.713278 C52.3921456,115.263056 46.8315812,118.047539 38.4412589,119.908269 C30.0509365,121.768999 22.0081083,122.001424 20.3107689,114.451631 Z" id="路径" fill="#E6E6E6"></path>
                <ellipse id="椭圆形" fill="#2F2E41" transform="translate(16.607360, 124.374803) rotate(-64.625740) translate(-16.607360, -124.374803) " cx="16.6073598" cy="124.374803" rx="3.31033757" ry="10.5413842"></ellipse>
                <path d="M30,141.647663 C30,143.783153 35.3994394,148 41.390897,148 C47.3823546,148 53,141.987896 53,139.852431 C53,137.716967 47.3823297,140.266723 41.390897,140.266723 C35.3994643,140.266723 30,139.512168 30,141.647663 Z" id="路径" fill="#FFFFFF"></path>
                <ellipse id="椭圆形" fill="#2F2E41" cx="113.5" cy="162" rx="5.5" ry="2"></ellipse>
                <ellipse id="椭圆形" fill="#2F2E41" cx="101.5" cy="162" rx="5.5" ry="2"></ellipse>
                <ellipse id="椭圆形" fill="#2F2E41" transform="translate(85.698417, 127.539163) rotate(-60.037430) translate(-85.698417, -127.539163) " cx="85.6984169" cy="127.539163" rx="3.31022551" ry="10.5417466"></ellipse>
                <circle id="椭圆形" fill="#2F2E41" cx="110" cy="134" r="21"></circle>
                <rect id="矩形" fill="#2F2E41" x="113" y="151" width="6" height="11"></rect>
                <rect id="矩形" fill="#2F2E41" x="100" y="151" width="6" height="11"></rect>
                <circle id="椭圆形" fill="#FFFFFF" cx="105" cy="129" r="7"></circle>
                <ellipse id="椭圆形" fill="#3F3D56" transform="translate(101.223290, 127.842255) rotate(-44.974270) translate(-101.223290, -127.842255) " cx="101.22329" cy="127.842255" rx="2.40914956" ry="2.39220038"></ellipse>
                <path d="M111.558739,119.908276 C103.168423,118.047556 97.6078544,115.263072 99.3051935,107.713282 C101.002533,100.163491 109.180201,95.5516153 117.570517,97.4123651 C125.960833,99.273115 131.38657,106.901856 129.689231,114.451637 C127.991892,122.001418 119.949055,121.768997 111.558739,119.908276 Z" id="路径" fill="#F9A826"></path>
                <ellipse id="椭圆形" fill="#2F2E41" transform="translate(128.927318, 140.046386) rotate(-14.874590) translate(-128.927318, -140.046386) " cx="128.927318" cy="140.046386" rx="3.30905708" ry="10.5454618"></ellipse>
                <path d="M104.571152,140.266723 C100.663697,140.266723 97,137.716967 97,139.852431 C97,141.987896 100.663677,148 104.571152,148 C108.478627,148 112,143.783153 112,141.647663 C112,139.512173 108.478612,140.266723 104.571152,140.266723 Z" id="路径" fill="#FFFFFF"></path>
                <path d="M78.0251347,99 L76.1434954,99 C72.6338759,98.9960362 69.7897524,96.1540058 69.7858021,92.6469691 L69.7858021,91.0684359 C69.7858021,87.1585951 70.5271267,83.8848693 71.9893492,81.3382362 C73.7613622,78.3759576 75.8286571,75.6003631 78.1596746,73.0538249 C79.707195,71.4987587 81.1113586,69.8075304 82.3551367,68.0006494 C83.2475351,66.5969111 83.708243,64.9624183 83.6801971,63.2996198 C83.6801971,59.3775477 81.1230395,57.4708642 75.8624362,57.4708642 C72.9443182,57.503829 70.044686,57.9387235 67.245465,58.7632602 C65.0569385,59.3875243 62.7020852,58.9492416 60.8852277,57.5794997 C59.0683703,56.2097578 58,54.0673627 58,51.7930921 L58,48.597621 C57.9874442,45.7872429 59.6325677,43.2331265 62.1976941,42.0806543 C67.141417,39.9724164 72.4728728,38.9243607 77.8473701,39.0042464 C83.4776765,39.0042464 88.5602742,39.9492996 92.9543852,41.8127656 C97.3564415,43.6805529 100.834361,46.3143192 103.291343,49.6410947 C105.740948,52.9443051 107.042917,56.9570857 106.998921,61.0681682 C106.998921,65.4828345 105.79277,69.3278564 103.414095,72.4964413 C101.061372,75.6328601 97.688666,79.0664577 93.3896534,82.7024123 C91.1245659,84.5847521 88.9781739,86.6053036 86.9627739,88.7524911 C85.6610228,90.1535957 84.7410014,91.865164 84.2907947,93.7233267 C83.7728528,96.7756575 81.1233062,99.0069864 78.0251347,99 Z" id="路径" fill="#F9A826"></path>
                <path d="M76.1173649,129 L75.867289,129 C69.3119262,128.995896 64,123.848373 64,117.5 C64,111.151627 69.3119262,106.004104 75.867289,106 L76.1173649,106 C80.3617069,105.997347 84.2848146,108.188653 86.4077777,111.747855 C88.5307408,115.307057 88.5307408,119.692943 86.4077777,123.252145 C84.2848146,126.811347 80.3617069,129.002653 76.1173649,129 Z" id="路径" fill="#F9A826"></path>
                <path d="M152.511182,165 L0.488817891,165 C0.218851225,165 0,164.776142 0,164.5 C0,164.223858 0.218851225,164 0.488817891,164 L152.511182,164 C152.781149,164 153,164.223858 153,164.5 C153,164.776142 152.781149,165 152.511182,165 Z" id="路径" fill="#CCCCCC"></path>
                <path d="M255.511905,165 L174.488095,165 C174.218528,165 174,164.776142 174,164.5 C174,164.223858 174.218528,164 174.488095,164 L255.511905,164 C255.781472,164 256,164.223858 256,164.5 C256,164.776142 255.781472,165 255.511905,165 Z" id="路径" fill="#CCCCCC"></path>
                <ellipse id="椭圆形" fill="#2F2E41" transform="translate(205.014699, 146.936217) rotate(-1.120410) translate(-205.014699, -146.936217) " cx="205.014699" cy="146.936217" rx="10.5403885" ry="3.31064947"></ellipse>
                <path d="M199.5,73 L186.5,73 C185.119943,72.9984212 184.001579,71.8800574 184,70.5 L184,57.5 C184.001579,56.1199426 185.119943,55.0015788 186.5,55 L199.5,55 C200.880057,55.0015788 201.998421,56.1199426 202,57.5 L202,70.5 C201.998421,71.8800574 200.880057,72.9984212 199.5,73 L199.5,73 Z M186.5,56 C185.671948,56.0009039 185.000904,56.6719476 185,57.5 L185,70.5 C185.000904,71.3280524 185.671948,71.9990961 186.5,72 L199.5,72 C200.328052,71.9990961 200.999096,71.3280524 201,70.5 L201,57.5 C200.999096,56.6719476 200.328052,56.0009039 199.5,56 L186.5,56 Z" id="形状" fill="#F2F2F2"></path>
                <path d="M205.5,65 L192.5,65 C191.119943,64.9984212 190.001579,63.8800574 190,62.5 L190,49.5 C190.001579,48.1199426 191.119943,47.0015788 192.5,47 L205.5,47 C206.880057,47.0015788 207.998421,48.1199426 208,49.5 L208,62.5 C207.998421,63.8800574 206.880057,64.9984212 205.5,65 L205.5,65 Z M192.5,48 C191.671948,48.0009039 191.000904,48.6719476 191,49.5 L191,62.5 C191.000904,63.3280524 191.671948,63.9990961 192.5,64 L205.5,64 C206.328052,63.9990961 206.999096,63.3280524 207,62.5 L207,49.5 C206.999096,48.6719476 206.328052,48.0009039 205.5,48 L192.5,48 Z" id="形状" fill="#F2F2F2"></path>
                <path d="M105.5,24 L92.5,24 C91.1199426,23.9984212 90.0015788,22.8800574 90,21.5 L90,8.5 C90.0015788,7.11994263 91.1199426,6.00157883 92.5,6 L105.5,6 C106.880057,6.00157883 107.998421,7.11994263 108,8.5 L108,21.5 C107.998421,22.8800574 106.880057,23.9984212 105.5,24 Z M92.5,7 C91.6719476,7.00090386 91.0009039,7.67194755 91,8.5 L91,21.5 C91.0009039,22.3280524 91.6719476,22.9990961 92.5,23 L105.5,23 C106.328052,22.9990961 106.999096,22.3280524 107,21.5 L107,8.5 C106.999096,7.67194755 106.328052,7.00090386 105.5,7 L92.5,7 Z" id="形状" fill="#F2F2F2"></path>
                <path d="M97.5,18 L84.5,18 C83.1199426,17.9984212 82.0015788,16.8800574 82,15.5 L82,2.5 C82.0015788,1.11994263 83.1199426,0.00157883329 84.5,0 L97.5,0 C98.8800574,0.00157883329 99.9984212,1.11994263 100,2.5 L100,15.5 C99.9984212,16.8800574 98.8800574,17.9984212 97.5,18 Z M84.5,1 C83.6719476,1.00090386 83.0009039,1.67194755 83,2.5 L83,15.5 C83.0009039,16.3280524 83.6719476,16.9990961 84.5,17 L97.5,17 C98.3280524,16.9990961 98.9990961,16.3280524 99,15.5 L99,2.5 C98.9990961,1.67194755 98.3280524,1.00090386 97.5,1 L84.5,1 Z" id="形状" fill="#F2F2F2"></path>
                <circle id="椭圆形" fill="#F2F2F2" cx="157" cy="90" r="3"></circle>
                <circle id="椭圆形" fill="#F2F2F2" cx="30" cy="78" r="3"></circle>
                <circle id="椭圆形" fill="#F2F2F2" cx="243" cy="106" r="3"></circle>
            </g>
        </g>
    </g>
</svg>