<?xml version="1.0" encoding="UTF-8"?>
<svg width="199px" height="195px" viewBox="0 0 199 195" version="1.1" xmlns="http://www.w3.org/2000/svg" xmlns:xlink="http://www.w3.org/1999/xlink">
    <title>undraw_Graduation_ktn0</title>
    <defs>
        <linearGradient x1="-2.31387508e-13%" y1="50.000002%" x2="100%" y2="50.000002%" id="linearGradient-1">
            <stop stop-color="#808080" stop-opacity="0.25" offset="0%"></stop>
            <stop stop-color="#808080" stop-opacity="0.12" offset="53.514%"></stop>
            <stop stop-color="#808080" stop-opacity="0.1" offset="100%"></stop>
        </linearGradient>
    </defs>
    <g id="页面-1" stroke="none" stroke-width="1" fill="none" fill-rule="evenodd">
        <g id="画板" transform="translate(-1721.000000, 2.000000)" fill-rule="nonzero">
            <g id="undraw_Graduation_ktn0" transform="translate(1721.589565, -1.215501)">
                <ellipse id="椭圆形" fill="#E0E0E0" transform="translate(16.062528, 96.870704) rotate(-63.610790) translate(-16.062528, -96.870704) " cx="16.0625279" cy="96.8707042" rx="11.1500959" ry="1.9460881"></ellipse>
                <ellipse id="椭圆形" fill="#E0E0E0" transform="translate(120.148143, 170.357497) rotate(-63.610790) translate(-120.148143, -170.357497) " cx="120.148143" cy="170.357497" rx="11.1490125" ry="1.67378573"></ellipse>
                <polygon id="矩形" fill="#F55F44" transform="translate(57.937952, 148.146152) rotate(39.547320) translate(-57.937952, -148.146152) " points="53.2876109 137.210767 59.1398389 138.245303 62.5882935 159.081537 56.7360654 158.047001"></polygon>
                <polygon id="矩形" fill="#000000" opacity="0.05" transform="translate(60.949891, 150.383636) rotate(-166.768900) translate(-60.949891, -150.383636) " points="57.2935643 138.461637 63.0413009 138.989872 64.6062182 162.305635 58.8584816 161.7774"></polygon>
                <polygon id="矩形" fill="#F55F44" transform="translate(61.254364, 150.485406) rotate(-166.768900) translate(-61.254364, -150.485406) " points="57.9177211 138.592787 63.0260906 139.062262 64.5910079 162.378025 59.4826384 161.90855"></polygon>
                <polygon id="矩形" fill="url(#linearGradient-1)" transform="translate(68.109679, 133.582277) rotate(-63.610790) translate(-68.109679, -133.582277) " points="66.1570357 72.1097814 89.5680073 69.1734416 70.0623215 195.054773 46.6513499 197.991112"></polygon>
                <path d="M116.039843,180.215501 C114.011783,178.835529 10.9408388,106.242475 12.4263383,107.288034 C18.1470808,94.9018669 19.7969302,86.2155009 19.7969302,86.2155009 L123.410435,159.142968 C123.410435,159.142968 119.771757,168.201669 116.039843,180.215501 Z" id="路径" fill="#F5F5F5"></path>
                <polygon id="矩形" fill="#000000" opacity="0.05" transform="translate(65.871100, 132.003287) rotate(26.389210) translate(-65.871100, -132.003287) " points="59.2841862 120.051208 69.6615001 121.659204 72.458014 143.955366 62.0807001 142.34737"></polygon>
                <polygon id="矩形" fill="#F55F44" transform="translate(65.871099, 132.003286) rotate(26.389210) translate(-65.871099, -132.003286) " points="59.7353719 120.12112 69.2103122 121.58929 72.0068261 143.885453 62.5318859 142.417282"></polygon>
                <polygon id="矩形" fill="#000000" opacity="0.05" transform="translate(65.684550, 131.871704) rotate(26.389210) translate(-65.684550, -131.871704) " points="61.1279804 120.234233 67.4446064 121.213013 70.2411203 143.509175 63.9244944 142.530395"></polygon>
                <polygon id="矩形" fill="#F55F44" transform="translate(65.684550, 131.871704) rotate(26.389210) translate(-65.684550, -131.871704) " points="61.5791686 120.304146 66.9934183 121.1431 69.7899322 143.439262 64.3756825 142.600308"></polygon>
                <ellipse id="椭圆形" fill="#DBDBDB" cx="70.9104348" cy="191.215501" rx="1" ry="1"></ellipse>
                <g id="编组" opacity="0.5" transform="translate(14.410435, 162.215501)" fill="#47E6B1">
                    <rect id="矩形" x="1.64318" y="0" width="1" height="6"></rect>
                    <polygon id="矩形" transform="translate(1.976513, 3.000000) rotate(90.000000) translate(-1.976513, -3.000000) " points="1.44710157 1.11111111 2.5059251 1.11111111 2.5059251 4.88888889 1.44710157 4.88888889"></polygon>
                </g>
                <g id="编组" opacity="0.5" transform="translate(193.410435, 91.215501)" fill="#47E6B1">
                    <rect id="矩形" x="1.64318" y="0" width="1" height="6"></rect>
                    <polygon id="矩形" transform="translate(1.976513, 3.000000) rotate(90.000000) translate(-1.976513, -3.000000) " points="1.44710157 1.11111111 2.5059251 1.11111111 2.5059251 4.88888889 1.44710157 4.88888889"></polygon>
                </g>
                <g id="编组" opacity="0.5" transform="translate(18.410435, 20.215501)" fill="#47E6B1">
                    <rect id="矩形" x="1.64318" y="0" width="1" height="6"></rect>
                    <polygon id="矩形" transform="translate(1.976513, 3.000000) rotate(90.000000) translate(-1.976513, -3.000000) " points="1.44710157 1.11111111 2.5059251 1.11111111 2.5059251 4.88888889 1.44710157 4.88888889"></polygon>
                </g>
                <g id="编组" opacity="0.5" transform="translate(172.410435, 11.215501)" fill="#47E6B1">
                    <rect id="矩形" x="1.64318" y="0" width="1" height="6"></rect>
                    <polygon id="矩形" transform="translate(1.976513, 3.000000) rotate(90.000000) translate(-1.976513, -3.000000) " points="1.44710157 1.11111111 2.5059251 1.11111111 2.5059251 4.88888889 1.44710157 4.88888889"></polygon>
                </g>
                <path d="M12.1648657,85.2492832 C11.781142,85.0264599 11.583693,84.4554382 11.7058005,83.9216687 C11.715345,83.8821389 11.721358,83.8412455 11.7237148,83.7998367 L11.7237148,83.7998367 C11.7347898,83.5572691 11.6253343,83.333686 11.4543356,83.2495798 C11.2833368,83.1654737 11.0912049,83.2407203 10.9814829,83.4347681 L10.9814829,83.4347681 C10.9631074,83.4682986 10.9477627,83.5046022 10.9357667,83.5429264 C10.7686484,84.0545568 10.3403827,84.3178216 9.94005565,84.1550132 C9.91040832,84.1422863 9.87973829,84.134268 9.84868162,84.1311245 L9.84868162,84.1311245 C9.66675745,84.1163622 9.49907313,84.2623031 9.4359941,84.4902992 C9.37291507,84.7182954 9.42934762,84.9744687 9.57488013,85.1207668 L9.57488013,85.1207668 C9.60002774,85.1452671 9.62725552,85.1657258 9.65599886,85.1817187 C10.0397194,85.4045461 10.2371672,85.9755641 10.115064,86.5093332 C10.1055187,86.5488629 10.099505,86.5897563 10.0971475,86.6311652 L10.0971475,86.6311652 C10.0860724,86.8737328 10.1955279,87.0973159 10.3665267,87.181422 C10.5375255,87.2655282 10.7296573,87.1902816 10.8393794,86.9962338 L10.8393794,86.9962338 C10.8577557,86.962704 10.8731005,86.9264003 10.8850955,86.8880755 C11.0522138,86.3764451 11.4804795,86.1131802 11.8808066,86.2759887 C11.910455,86.2887141 11.9411257,86.2967324 11.9721829,86.2998774 L11.9721829,86.2998774 C12.1541086,86.3146442 12.321796,86.1687036 12.3848756,85.9407052 C12.4479552,85.7127069 12.3915203,85.4565311 12.2459844,85.3102351 L12.2459844,85.3102351 C12.2208359,85.2857366 12.1936083,85.265278 12.1648657,85.2492832 Z" id="路径" fill="#4D8AF0" opacity="0.5"></path>
                <path d="M52.1648657,18.2492832 C51.781142,18.0264599 51.583693,17.4554382 51.7058005,16.9216687 C51.715345,16.8821389 51.721358,16.8412455 51.7237148,16.7998367 L51.7237148,16.7998367 C51.7347898,16.5572691 51.6253343,16.333686 51.4543356,16.2495798 C51.2833368,16.1654737 51.0912049,16.2407203 50.9814829,16.4347681 L50.9814829,16.4347681 C50.9631074,16.4682986 50.9477627,16.5046022 50.9357667,16.5429264 C50.7686484,17.0545568 50.3403827,17.3178216 49.9400557,17.1550132 C49.9104083,17.1422863 49.8797383,17.134268 49.8486816,17.1311245 L49.8486816,17.1311245 C49.6667575,17.1163622 49.4990731,17.2623031 49.4359941,17.4902992 C49.3729151,17.7182954 49.4293476,17.9744687 49.5748801,18.1207668 L49.5748801,18.1207668 C49.6000277,18.1452671 49.6272555,18.1657258 49.6559989,18.1817187 C50.0397194,18.4045461 50.2371672,18.9755641 50.115064,19.5093332 C50.1055187,19.5488629 50.099505,19.5897563 50.0971475,19.6311652 L50.0971475,19.6311652 C50.0860724,19.8737328 50.1955279,20.0973159 50.3665267,20.181422 C50.5375255,20.2655282 50.7296573,20.1902816 50.8393794,19.9962338 L50.8393794,19.9962338 C50.8577557,19.962704 50.8731005,19.9264003 50.8850955,19.8880755 C51.0522138,19.3764451 51.4804795,19.1131802 51.8808066,19.2759887 C51.910455,19.2887141 51.9411257,19.2967324 51.9721829,19.2998774 L51.9721829,19.2998774 C52.1541086,19.3146442 52.321796,19.1687036 52.3848756,18.9407052 C52.4479552,18.7127069 52.3915203,18.4565311 52.2459844,18.3102351 L52.2459844,18.3102351 C52.2208359,18.2857366 52.1936083,18.265278 52.1648657,18.2492832 Z" id="路径" fill="#4D8AF0" opacity="0.5"></path>
                <path d="M103.164866,191.249283 C102.781142,191.02646 102.583693,190.455438 102.7058,189.921669 C102.715345,189.882139 102.721358,189.841245 102.723715,189.799837 L102.723715,189.799837 C102.73479,189.557269 102.625334,189.333686 102.454336,189.24958 C102.283337,189.165474 102.091205,189.24072 101.981483,189.434768 L101.981483,189.434768 C101.963107,189.468299 101.947763,189.504602 101.935767,189.542926 C101.768648,190.054557 101.340383,190.317822 100.940056,190.155013 C100.910408,190.142286 100.879738,190.134268 100.848682,190.131124 L100.848682,190.131124 C100.666757,190.116362 100.499073,190.262303 100.435994,190.490299 C100.372915,190.718295 100.429348,190.974469 100.57488,191.120767 L100.57488,191.120767 C100.600028,191.145267 100.627256,191.165726 100.655999,191.181719 C101.039719,191.404546 101.237167,191.975564 101.115064,192.509333 C101.105519,192.548863 101.099505,192.589756 101.097148,192.631165 L101.097148,192.631165 C101.086072,192.873733 101.195528,193.097316 101.366527,193.181422 C101.537525,193.265528 101.729657,193.190282 101.839379,192.996234 L101.839379,192.996234 C101.857756,192.962704 101.8731,192.9264 101.885096,192.888076 C102.052214,192.376445 102.48048,192.11318 102.880807,192.275989 C102.910455,192.288714 102.941126,192.296732 102.972183,192.299877 L102.972183,192.299877 C103.154109,192.314644 103.321796,192.168704 103.384876,191.940705 C103.447955,191.712707 103.39152,191.456531 103.245984,191.310235 L103.245984,191.310235 C103.220836,191.285737 103.193608,191.265278 103.164866,191.249283 L103.164866,191.249283 Z" id="路径" fill="#4D8AF0" opacity="0.5"></path>
                <ellipse id="椭圆形" fill="#F55F44" opacity="0.5" cx="189.910435" cy="150.215501" rx="1.5" ry="2"></ellipse>
                <ellipse id="椭圆形" fill="#4D8AF0" opacity="0.5" cx="157.910435" cy="163.215501" rx="1.5" ry="2"></ellipse>
                <ellipse id="椭圆形" fill="#47E6B1" opacity="0.5" cx="33.9104348" cy="182.215501" rx="1.5" ry="2"></ellipse>
                <ellipse id="椭圆形" fill="#F55F44" opacity="0.5" cx="106.910435" cy="2.21550095" rx="1.5" ry="2"></ellipse>
                <path d="M58.0912858,120.741331 L52.4104348,132.975033 C52.4104348,132.975033 54.3040518,145.54856 96.2003284,145.208735 C138.096605,144.86891 141.410435,132.975033 141.410435,132.975033 L133.599265,116.66343 L109.69235,93.2155009 L58.0912858,120.741331 Z" id="路径" fill="#F9A826"></path>
                <path d="M58.0912858,120.741331 L52.4104348,132.975033 C52.4104348,132.975033 54.3040518,145.54856 96.2003284,145.208735 C138.096605,144.86891 141.410435,132.975033 141.410435,132.975033 L133.599265,116.66343 L109.69235,93.2155009 L58.0912858,120.741331 Z" id="路径" fill="#000000" opacity="0.15"></path>
                <polygon id="路径" fill="#F9A826" points="179.410435 76.2623237 104.603568 123.215501 13.4104348 76.2623237 97.0041401 22.2155009 138.038675 49.1274407 139.508689 50.0935277"></polygon>
                <polygon id="路径" fill="#000000" opacity="0.15" points="179.410435 76.2623237 104.603568 123.215501 13.4104348 76.2623237 97.0041401 22.2155009 138.038675 49.1274407 139.508689 50.0935277"></polygon>
                <polygon id="路径" fill="#F5F5F5" points="140.410435 87.0923539 138.994227 87.2155009 137.410435 48.2155009 138.871489 49.1938362"></polygon>
                <path d="M59.0380944,75.0631496 L52.4104348,132.215501 C52.4104348,132.215501 99.9875624,110.363131 141.410435,132.215501 L135.256179,71.7012466 C135.256179,71.7012466 79.6311795,61.9517279 59.0380944,75.0631496 Z" id="路径" fill="#F9A826"></path>
                <circle id="椭圆形" fill="#F5F5F5" cx="140.410435" cy="92.2155009" r="7"></circle>
            </g>
        </g>
    </g>
</svg>