<?xml version="1.0" encoding="UTF-8"?>
<svg width="1085px" height="1080px" viewBox="0 0 1085 1080" version="1.1" xmlns="http://www.w3.org/2000/svg" xmlns:xlink="http://www.w3.org/1999/xlink">
    <title>直线</title>
    <defs>
        <filter x="-2.8%" y="-2.8%" width="105.6%" height="105.6%" filterUnits="objectBoundingBox" id="filter-1">
            <feGaussianBlur stdDeviation="10" in="SourceGraphic"></feGaussianBlur>
        </filter>
        <text id="text-2" font-family="DFWaWaSC-W5, Wawati SC" font-size="72" font-weight="normal">
            <tspan x="41.92" y="76">moodle</tspan>
        </text>
        <filter x="-2.4%" y="-5.0%" width="104.8%" height="114.0%" filterUnits="objectBoundingBox" id="filter-3">
            <feOffset dx="0" dy="2" in="SourceAlpha" result="shadowOffsetOuter1"></feOffset>
            <feGaussianBlur stdDeviation="2" in="shadowOffsetOuter1" result="shadowBlurOuter1"></feGaussianBlur>
            <feColorMatrix values="0 0 0 0 0.968627451   0 0 0 0 0.709803922   0 0 0 0 0  0 0 0 1 0" type="matrix" in="shadowBlurOuter1"></feColorMatrix>
        </filter>
        <linearGradient x1="50.0388782%" y1="99.9911902%" x2="50.0388782%" y2="0.00772962824%" id="linearGradient-4">
            <stop stop-color="#808080" stop-opacity="0.25" offset="0%"></stop>
            <stop stop-color="#808080" stop-opacity="0.12" offset="54%"></stop>
            <stop stop-color="#808080" stop-opacity="0.1" offset="100%"></stop>
        </linearGradient>
    </defs>
    <g id="页面-1" stroke="none" stroke-width="1" fill="none" fill-rule="evenodd">
        <g id="画板">
            <polygon id="直线" fill-opacity="0.0913461538" fill="#F7B500" filter="url(#filter-1)" points="-7 1079 -7 -1 1065.5 -1 1065.5 1079.5"></polygon>
            <g id="moodle" fill-rule="nonzero" fill="#F7B500">
                <use fill-opacity="1" filter="url(#filter-3)" xlink:href="#text-2"></use>
                <use xlink:href="#text-2"></use>
                <use fill-opacity="1" xlink:href="#text-2"></use>
            </g>
            <g id="undraw_youtube_tutorial_2gn3" transform="translate(65.000000, 136.000000)" fill-rule="nonzero">
                <path d="M539.185044,102.383706 C479.693452,100.322647 423.026972,81.1079914 368.922803,60.1032527 C314.818633,39.0985141 261.215428,15.8192201 203.152818,4.68457365 C165.802216,-2.47575946 123.08883,-3.46933779 92.9981082,16.5336111 C64.0325032,35.7975348 54.6784278,69.0865147 49.6523574,99.9202886 C45.8663795,123.142103 43.640783,147.546357 54.005,169.314755 C61.2073917,184.399081 73.9943061,197.08568 82.8392045,211.537729 C113.595142,261.840711 91.8729912,323.861349 58.5136808,372.965468 C42.9098675,396.006632 24.7355313,417.980315 12.6713198,442.50774 C0.607108364,467.035165 -4.9774143,495.126335 5.57569102,520.138232 C16.046671,544.936634 40.9799222,563.560069 67.9909443,576.657238 C122.858879,603.262145 187.516154,610.882316 250.563773,615.193297 C390.135776,624.702088 530.446908,620.596392 670.380263,616.490696 C722.168499,614.955166 774.178472,613.403213 825.129029,605.397107 C853.412994,600.954744 882.616762,593.901159 903.148095,576.862523 C929.222889,555.233718 935.686152,518.610913 918.209882,491.464054 C888.907563,445.981158 807.874496,434.682284 787.392438,385.865564 C776.11663,358.997892 787.696302,329.067371 804.080306,304.145799 C839.229949,250.681431 898.146663,203.786176 901.251,142.677002 C903.386259,100.708582 875.061231,58.6744707 831.272004,38.8193268 C785.363943,18.0034501 721.716809,20.6228839 687.848322,55.0778813 C652.99433,90.5593026 591.712407,104.206635 539.185044,102.383706 Z" id="路径" fill="#F7B500" opacity="0.1"></path>
                <polygon id="路径" fill="#D0D2D5" points="545 621 385 618.944444 385.467692 614.833333 393.205128 547 533.717949 547 544.05641 614.833333 544.844103 619.972222"></polygon>
                <polygon id="路径" fill="#000000" opacity="0.1" points="545 619 465.078025 619 385 618 385.468148 614 544.211539 614"></polygon>
                <rect id="矩形" fill="#D0D2D5" x="359" y="615" width="212" height="5"></rect>
                <path d="M774,139.422582 C774.017304,135.880097 772.626377,132.475772 770.133055,129.95854 C767.639732,127.441308 764.24826,126.017376 760.704745,126 L167.303467,126 C163.758526,126.015204 160.364945,127.43818 157.869848,129.955648 C155.374751,132.473116 153.982699,135.878681 154,139.422582 L154,499 L774,499 L774,139.422582 Z" id="路径" fill="#444053"></path>
                <path d="M154,496 L154,537.8 C154,545.090159 159.956095,551 167.303311,551 L760.704901,551 C768.048909,550.995502 774,545.086978 774,537.8 L774,496 L154,496 Z" id="路径" fill="#D0D2D5"></path>
                <rect id="矩形" fill="#F9A826" opacity="0.1" x="179" y="149" width="572" height="323"></rect>
                <path d="M466.980961,535 C471.282952,535.00276 475.348316,533.028322 478.009997,529.643479 L478.009997,529.643479 C478.408481,529.133641 478.771968,528.597313 479.097952,528.038191 L471.407524,526.773922 L479.712522,526.840462 C481.331437,523.326669 481.427622,519.298857 479.978282,515.711572 L468.82467,521.533861 L479.114562,513.964885 C476.479631,509.438221 471.545925,506.75899 466.320478,507.017105 C461.095031,507.27522 456.448517,510.427672 454.271138,515.192044 C452.09376,519.956416 452.748316,525.538858 455.968534,529.668432 L455.968534,529.668432 C458.630027,533.041305 462.688472,535.006159 466.980961,535 Z" id="路径" fill="#F9A826"></path>
                <polygon id="路径" fill="#000000" opacity="0.1" points="481 551 545 615 535.184857 551"></polygon>
                <rect id="矩形" fill="#FFFFFF" x="196" y="207" width="375" height="225" rx="2.6"></rect>
                <rect id="矩形" fill="#FFFFFF" x="180" y="149" width="572" height="19"></rect>
                <rect id="矩形" fill="#F9A826" x="183" y="153" width="16" height="11" rx="0.78"></rect>
                <rect id="矩形" fill="#F9A826" opacity="0.3" x="378" y="153" width="172" height="11" rx="0.58"></rect>
                <path d="M545.378313,159.637114 L544.970673,159.637114 L544.818807,159.508082 C545.331719,158.893965 545.614606,158.117624 545.618102,157.314545 C545.604868,155.472796 544.115913,153.98974 542.29048,154.000053 C540.465048,154.010475 538.992735,155.510351 539.000027,157.352133 C539.007373,159.193916 540.491558,160.681831 542.317014,160.677431 C543.112726,160.672542 543.881737,160.387288 544.491096,159.870983 L544.642962,160.000015 L544.642962,160.419368 L547.200705,163 L548,162.193552 L545.378313,159.637114 Z M542.309021,159.637114 C541.373282,159.640375 540.528032,159.073733 540.168445,158.202106 C539.808859,157.33048 540.005981,156.32608 540.667652,155.658487 C541.329324,154.990895 542.324815,154.792009 543.188711,155.154813 C544.052606,155.517618 544.614222,156.370432 544.61099,157.314545 C544.615284,157.931846 544.374135,158.525121 543.941497,158.96163 C543.50886,159.398139 542.920847,159.641446 542.309021,159.637114 L542.309021,159.637114 Z" id="形状" fill="#444053"></path>
                <circle id="椭圆形" fill="#F9A826" cx="743.5" cy="158.5" r="5.5"></circle>
                <rect id="矩形" fill="#FFFFFF" x="599" y="189" width="53" height="36" rx="2.43"></rect>
                <rect id="矩形" fill="#FFFFFF" x="666" y="188" width="69" height="6" rx="0.61"></rect>
                <rect id="矩形" fill="#FFFFFF" x="666" y="201" width="69" height="6" rx="0.61"></rect>
                <rect id="矩形" fill="#FFFFFF" x="666" y="213" width="69" height="6" rx="0.61"></rect>
                <rect id="矩形" fill="#FFFFFF" x="599" y="245" width="53" height="36" rx="2.43"></rect>
                <rect id="矩形" fill="#FFFFFF" x="666" y="245" width="69" height="6" rx="0.61"></rect>
                <rect id="矩形" fill="#FFFFFF" x="666" y="257" width="69" height="6" rx="0.61"></rect>
                <rect id="矩形" fill="#FFFFFF" x="666" y="270" width="69" height="6" rx="0.66"></rect>
                <rect id="矩形" fill="#FFFFFF" x="599" y="302" width="53" height="36" rx="2.43"></rect>
                <rect id="矩形" fill="#FFFFFF" x="666" y="302" width="69" height="6" rx="0.66"></rect>
                <rect id="矩形" fill="#FFFFFF" x="666" y="314" width="69" height="6" rx="0.66"></rect>
                <rect id="矩形" fill="#FFFFFF" x="666" y="326" width="69" height="6" rx="0.66"></rect>
                <rect id="矩形" fill="#FFFFFF" x="599" y="358" width="53" height="36" rx="2.43"></rect>
                <rect id="矩形" fill="#FFFFFF" x="666" y="358" width="69" height="6" rx="0.66"></rect>
                <rect id="矩形" fill="#FFFFFF" x="666" y="371" width="69" height="6" rx="0.66"></rect>
                <rect id="矩形" fill="#FFFFFF" x="666" y="383" width="69" height="6" rx="0.66"></rect>
                <rect id="矩形" fill="#FFFFFF" x="599" y="415" width="53" height="36" rx="2.43"></rect>
                <rect id="矩形" fill="#FFFFFF" x="666" y="415" width="69" height="6" rx="0.66"></rect>
                <rect id="矩形" fill="#FFFFFF" x="666" y="427" width="69" height="6" rx="0.66"></rect>
                <rect id="矩形" fill="#FFFFFF" x="666" y="440" width="69" height="6" rx="0.66"></rect>
                <rect id="矩形" fill="#F9A826" opacity="0.1" x="251" y="267" width="84" height="4"></rect>
                <rect id="矩形" fill="#F9A826" opacity="0.1" x="258" y="244" width="8" height="23"></rect>
                <rect id="矩形" fill="#F9A826" opacity="0.1" x="270" y="244" width="8" height="23"></rect>
                <rect id="矩形" fill="#F9A826" opacity="0.1" x="282" y="244" width="8" height="23"></rect>
                <rect id="矩形" fill="#F9A826" opacity="0.1" x="294" y="244" width="8" height="23"></rect>
                <rect id="矩形" fill="#F9A826" opacity="0.1" x="306" y="244" width="8" height="23"></rect>
                <rect id="矩形" fill="#F9A826" opacity="0.1" x="317" y="244" width="8" height="23"></rect>
                <rect id="矩形" fill="#F9A826" opacity="0.1" x="258" y="248" width="8" height="3"></rect>
                <rect id="矩形" fill="#F9A826" opacity="0.1" x="270" y="248" width="8" height="3"></rect>
                <rect id="矩形" fill="#F9A826" opacity="0.1" x="282" y="248" width="8" height="3"></rect>
                <rect id="矩形" fill="#F9A826" opacity="0.1" x="294" y="248" width="8" height="3"></rect>
                <rect id="矩形" fill="#F9A826" opacity="0.1" x="306" y="248" width="8" height="3"></rect>
                <rect id="矩形" fill="#F9A826" opacity="0.1" x="317" y="248" width="8" height="3"></rect>
                <rect id="矩形" fill="#F9A826" opacity="0.1" x="258" y="259" width="8" height="3"></rect>
                <rect id="矩形" fill="#F9A826" opacity="0.1" x="270" y="259" width="8" height="3"></rect>
                <rect id="矩形" fill="#F9A826" opacity="0.1" x="282" y="259" width="8" height="3"></rect>
                <rect id="矩形" fill="#F9A826" opacity="0.1" x="294" y="259" width="8" height="3"></rect>
                <rect id="矩形" fill="#F9A826" opacity="0.1" x="306" y="259" width="8" height="3"></rect>
                <rect id="矩形" fill="#F9A826" opacity="0.1" x="317" y="259" width="8" height="3"></rect>
                <rect id="矩形" fill="#F9A826" opacity="0.1" x="436" y="278" width="84" height="4"></rect>
                <rect id="矩形" fill="#F9A826" opacity="0.1" x="443" y="255" width="8" height="23"></rect>
                <rect id="矩形" fill="#F9A826" opacity="0.1" x="455" y="255" width="8" height="23"></rect>
                <rect id="矩形" fill="#F9A826" opacity="0.1" x="467" y="255" width="8" height="23"></rect>
                <rect id="矩形" fill="#F9A826" opacity="0.1" x="479" y="255" width="8" height="23"></rect>
                <rect id="矩形" fill="#F9A826" opacity="0.1" x="491" y="255" width="8" height="23"></rect>
                <rect id="矩形" fill="#F9A826" opacity="0.1" x="503" y="255" width="8" height="23"></rect>
                <rect id="矩形" fill="#F9A826" opacity="0.1" x="443" y="259" width="8" height="3"></rect>
                <rect id="矩形" fill="#F9A826" opacity="0.1" x="455" y="259" width="8" height="3"></rect>
                <rect id="矩形" fill="#F9A826" opacity="0.1" x="467" y="259" width="8" height="3"></rect>
                <rect id="矩形" fill="#F9A826" opacity="0.1" x="479" y="259" width="8" height="3"></rect>
                <rect id="矩形" fill="#F9A826" opacity="0.1" x="491" y="259" width="8" height="3"></rect>
                <rect id="矩形" fill="#F9A826" opacity="0.1" x="503" y="259" width="8" height="3"></rect>
                <rect id="矩形" fill="#F9A826" opacity="0.1" x="443" y="270" width="8" height="3"></rect>
                <rect id="矩形" fill="#F9A826" opacity="0.1" x="455" y="270" width="8" height="3"></rect>
                <rect id="矩形" fill="#F9A826" opacity="0.1" x="467" y="270" width="8" height="3"></rect>
                <rect id="矩形" fill="#F9A826" opacity="0.1" x="479" y="270" width="8" height="3"></rect>
                <rect id="矩形" fill="#F9A826" opacity="0.1" x="491" y="270" width="8" height="3"></rect>
                <rect id="矩形" fill="#F9A826" opacity="0.1" x="503" y="270" width="8" height="3"></rect>
                <rect id="矩形" fill="#F9A826" opacity="0.1" x="436" y="310" width="84" height="4"></rect>
                <rect id="矩形" fill="#F9A826" opacity="0.1" x="443" y="287" width="8" height="23"></rect>
                <rect id="矩形" fill="#F9A826" opacity="0.1" x="455" y="287" width="8" height="23"></rect>
                <rect id="矩形" fill="#F9A826" opacity="0.1" x="467" y="287" width="8" height="23"></rect>
                <rect id="矩形" fill="#F9A826" opacity="0.1" x="479" y="287" width="8" height="23"></rect>
                <rect id="矩形" fill="#F9A826" opacity="0.1" x="491" y="287" width="8" height="23"></rect>
                <rect id="矩形" fill="#F9A826" opacity="0.1" x="503" y="287" width="8" height="23"></rect>
                <rect id="矩形" fill="#F9A826" opacity="0.1" x="443" y="291" width="8" height="3"></rect>
                <rect id="矩形" fill="#F9A826" opacity="0.1" x="455" y="291" width="8" height="3"></rect>
                <rect id="矩形" fill="#F9A826" opacity="0.1" x="467" y="291" width="8" height="3"></rect>
                <rect id="矩形" fill="#F9A826" opacity="0.1" x="479" y="291" width="8" height="3"></rect>
                <rect id="矩形" fill="#F9A826" opacity="0.1" x="491" y="291" width="8" height="3"></rect>
                <rect id="矩形" fill="#F9A826" opacity="0.1" x="503" y="291" width="8" height="3"></rect>
                <rect id="矩形" fill="#F9A826" opacity="0.1" x="443" y="302" width="8" height="3"></rect>
                <rect id="矩形" fill="#F9A826" opacity="0.1" x="455" y="302" width="8" height="3"></rect>
                <rect id="矩形" fill="#F9A826" opacity="0.1" x="467" y="302" width="8" height="3"></rect>
                <rect id="矩形" fill="#F9A826" opacity="0.1" x="479" y="302" width="8" height="3"></rect>
                <rect id="矩形" fill="#F9A826" opacity="0.1" x="491" y="302" width="8" height="3"></rect>
                <rect id="矩形" fill="#F9A826" opacity="0.1" x="503" y="302" width="8" height="3"></rect>
                <path d="M302.71856,316.90421 C302.094659,316.099444 301.523988,315.254271 301.010237,314.374157 L313.057979,312.384504 L300.042188,312.482759 C297.519031,306.953534 297.366064,300.623235 299.619174,294.977086 L317.06847,304.082001 L300.953293,292.160457 C305.040369,284.942835 312.802628,280.640778 321.047708,281.023581 C329.292789,281.406385 336.628605,286.409417 340.038177,293.975095 C343.44775,301.540773 342.355413,310.39172 337.210407,316.887834 C338.191032,318.13325 339.031352,319.484326 339.715947,320.916268 L324.080728,329.104141 L340.749076,323.479072 C343.117898,330.545478 341.787326,338.337708 337.210407,344.202579 C344.309203,353.262065 343.29214,366.292915 334.874908,374.125535 C326.457676,381.958155 313.471291,381.958155 305.05406,374.125535 C296.636828,366.292915 295.619764,353.262065 302.71856,344.202579 C296.457524,336.185037 296.457524,324.897188 302.71856,316.879646 L302.71856,316.90421 Z" id="路径" fill="#F9A826" opacity="0.1"></path>
                <path d="M341.983368,330.327403 C341.984004,335.300551 340.324893,340.128843 337.27381,344.033014 C344.384085,353.135413 343.365377,366.227987 334.934534,374.097709 C326.503692,381.96743 313.496308,381.96743 305.065466,374.097709 C296.634623,366.227987 295.615915,353.135413 302.72619,344.033014 C299.768457,340.273432 341.983368,327.834726 341.983368,330.327403 Z" id="路径" fill="#F9A826" opacity="0.1"></path>
                <path d="M323.070692,384.833123 C323.108331,384.887052 323.143069,384.942749 323.174774,385 L315.841016,385 C315.881047,384.946903 315.905066,384.88622 315.945097,384.833123 C315.313867,383.792997 314.987687,382.611874 315.000355,381.412137 C314.996981,380.58987 315.146026,379.773428 315.440701,379 L315.440701,379 C315.849022,379.060683 316.353418,379.128951 316.937877,379.189633 C318.638971,379.350846 320.352799,379.350846 322.053894,379.189633 C322.544946,379.144121 323.049342,379.083439 323.567082,379.007585 C323.563301,379.019974 323.563301,379.033124 323.567082,379.045512 C323.85862,379.806374 324.005013,380.610294 323.999421,381.419722 C324.015531,382.6155 323.694952,383.793739 323.070692,384.833123 Z" id="路径" fill="#3F3D56" opacity="0.2"></path>
                <path d="M296.774049,386 L254.553688,386 C254.462624,385.761834 254.379839,385.507242 254.305333,385.260863 C252.817866,380.515211 252.98998,375.410233 254.793764,370.773786 C246.310634,364.955423 242.941535,354.134544 246.63944,344.583711 C245.791015,344.004257 244.985904,343.364744 244.230396,342.670169 L255.340145,337.17592 L242.707151,341.150832 C238.601649,336.606653 236.565313,330.584877 237.07777,324.503833 L256.788883,328.035264 L237.566201,321.407672 C239.37406,313.260475 245.638277,306.809298 253.777504,304.712532 C261.916731,302.615766 270.553472,305.228271 276.128712,311.47349 C281.703953,317.718709 283.274131,326.53969 280.192209,334.3015 C281.525453,335.221902 282.75499,336.281959 283.859585,337.463362 L271.094135,349.954771 L285.622906,339.590433 C290.046336,345.662355 291.080138,353.53952 288.371369,360.532637 C296.61084,366.192936 300.045226,376.602086 296.774049,386 Z" id="路径" fill="#F9A826" opacity="0.1"></path>
                <path d="M295.786676,386 L254.231089,386 C254.141459,385.762823 254.059978,385.50929 253.986644,385.263935 C252.522599,380.538001 252.692003,375.454235 254.467386,370.837053 C250.556272,368.12179 287.24741,343.79074 287.972596,346.162507 C289.43661,350.891217 289.267216,355.977544 287.491855,360.597566 C295.628999,366.232654 299.02204,376.623657 295.786676,386 Z" id="路径" fill="#F9A826" opacity="0.1"></path>
                <path d="M485.872303,355.453311 C483.324827,359.713983 479.410186,362.994241 474.760948,364.764027 C474.959817,366.340943 474.990144,367.934442 474.851418,369.517738 L457.078186,368.452251 L474.440191,372.206043 C473.929171,374.564329 473.034599,376.823466 471.791889,378.894022 C470.278513,381.429778 468.263864,383.632639 465.87022,385.368904 L441.673622,385.368904 L441.673622,386 L417,386 C417.049347,385.786903 417.098694,385.582001 417.156266,385.368904 C418.982613,378.489849 424.016984,372.905651 430.685635,370.361931 C429.386465,360.23567 435.207032,350.537851 444.774273,346.888436 C444.644123,345.874693 444.583669,344.853269 444.593334,343.831308 L456.066568,348.347334 L444.716702,341.700335 C445.392907,335.645955 448.543677,330.137123 453.42649,326.472069 L463.879881,343.339545 L456.041894,324.76729 C464.819254,319.927231 475.762873,321.552409 482.742755,328.732492 C489.722638,335.912575 491.005314,346.864375 485.872303,355.453311 L485.872303,355.453311 Z" id="路径" fill="#F9A826" opacity="0.1"></path>
                <path d="M471.971836,378.816476 C470.45349,381.379904 468.432225,383.606804 466.030719,385.362017 L441.754655,385.362017 L441.754655,386 L417,386 C417.049509,385.784577 417.099019,385.57744 417.156779,385.362017 C418.989124,378.407892 424.04003,372.762755 430.730582,370.191276 C430.524293,368.534177 435.318444,368.782742 441.713397,369.859856 C454.247504,371.972657 472.821746,377.391371 471.971836,378.816476 Z" id="路径" fill="#F9A826" opacity="0.1"></path>
                <path d="M366.559662,320.246259 C366.559662,320.246259 369.577887,336.644398 362.839904,341.998391 C356.101921,347.352384 368.550059,379.443543 389.090302,375.696568 C409.630544,371.949593 418,345.032047 418,345.032047 C418,345.032047 397.427128,340.752132 405.054263,319 L366.559662,320.246259 Z" id="路径" fill="#EE8E9E"></path>
                <path d="M366.559662,320.246259 C366.559662,320.246259 369.577887,336.644398 362.839904,341.998391 C356.101921,347.352384 368.550059,379.443543 389.090302,375.696568 C409.630544,371.949593 418,345.032047 418,345.032047 C418,345.032047 397.427128,340.752132 405.054263,319 L366.559662,320.246259 Z" id="路径" fill="#000000" opacity="0.1"></path>
                <circle id="椭圆形" fill="#EE8E9E" cx="385.5" cy="297.5" r="34.5"></circle>
                <path d="M441,362.606129 L441,386 L328,386 L328,363.669487 C328,357.880532 331.444323,352.65343 336.745902,350.398122 L339.983607,349.013284 C348.180328,345.50173 358.139344,341.141139 361.393443,339.327661 C361.749834,339.148692 362.085244,338.930271 362.393443,338.676457 C364.172131,336.887708 363.819672,339.212258 363.819672,339.212258 C363.819672,339.212258 363.770492,339.657384 363.737705,340.423991 C363.540984,345.691321 364.295082,366.389704 388.418033,364.6669 C411.95082,363.018283 413.008197,347.010215 412.770492,342.303414 C412.757159,341.867731 412.721593,341.433023 412.663934,341.001007 C414.291513,341.390404 415.884353,341.914244 417.426229,342.567193 C422.344262,344.397157 429.606557,347.331695 431.54918,348.716533 C432.155738,349.145173 432.893442,349.5903 433.696721,350.04367 C434.60803,350.554652 435.460226,351.165621 436.237705,351.865391 C439.269258,354.603474 441,358.508365 441,362.606129 L441,362.606129 Z" id="路径" fill="#F9A826"></path>
                <path d="M418,342.611292 C416.010005,351.982625 409.761585,369.535148 387.241066,369.992895 C363.246477,370.47561 361.8543,346.223333 362.009896,339.34048 C362.371136,339.164526 362.709484,338.943673 363.017177,338.682989 C364.80244,336.876968 364.442112,339.223963 364.442112,339.223963 C364.442112,339.223963 361.420268,366.913505 389.00995,364.924386 C416.599633,362.935266 413.209271,341.038306 413.209271,341.038306 C413.209271,340.905143 415.264781,341.629216 418,342.611292 Z" id="路径" fill="#000000" opacity="0.1"></path>
                <path d="M345.306633,299.845853 C347.62256,299.265229 350.057621,300.157187 351.455401,302.098136 C352.696587,303.842631 352.884398,305.947492 353.039546,307.962262 C354.517537,308.273486 355.350438,306.594511 355.489255,305.325043 C356.036356,300.157077 356.077185,294.89083 357.808312,289.894857 C359.53944,284.898883 363.320157,280.066712 369.125966,278.158414 C371.109805,277.468998 373.229549,277.266781 375.307398,277.568726 C376.540418,277.773479 377.699947,278.207555 378.924801,278.387738 C383.170962,279.092088 387.78458,277.077319 391.761274,278.477829 C394.259977,279.362362 395.844122,281.401702 397.011816,283.441042 C397.519721,284.540733 398.209994,285.546007 399.05324,286.414056 C400.743539,287.937418 403.389225,288.330544 405.814436,288.805571 C408.239648,289.280598 410.885333,290.1078 411.922376,291.983337 C412.853266,293.678692 412.167347,295.636131 411.857051,297.470718 C411.377199,300.376955 411.862031,303.360828 413.237053,305.963872 C413.686167,306.782884 414.600724,307.773889 415.686762,307.503615 C416.173083,307.33875 416.584438,307.004614 416.846291,306.561751 C419.630793,302.646874 419.557302,297.552619 423.052219,294.022677 C424.219914,292.8433 425.730567,291.926006 426.865599,290.746629 C428.610363,288.971433 429.352323,286.437531 428.841697,283.99797 C428.212939,281.29523 426.057195,279.083898 424.317902,276.708763 C422.059098,273.699799 420.413662,270.273845 419.475645,266.626725 C419.311932,266.202525 419.311932,265.732317 419.475645,265.308116 C419.805619,264.877988 420.230453,264.530377 420.71683,264.292541 C422.675034,262.975795 423.353375,260.405117 422.300975,258.289183 C421.312926,256.266223 419.140851,254.726481 416.691142,253.809187 C414.206435,252.990427 411.641351,252.441279 409.039886,252.171163 C407.32509,252.416867 405.316329,251.442243 404.785558,250.066303 C404.548753,249.452044 404.548753,248.788644 404.311948,248.174385 C403.659985,246.92253 402.441556,246.067079 401.04567,245.881151 C399.585073,245.644201 398.089565,245.750742 396.677023,246.192376 C395.043884,246.651022 393.190271,247.338993 391.777606,246.536361 C391.034527,246.118665 390.626242,245.356983 389.826004,245.012998 C388.192865,244.325028 386.510732,245.717349 385.343037,246.863966 C384.217881,248.067029 382.836094,248.999375 381.301018,249.591276 C379.660909,250.217979 377.829753,250.095338 376.287281,249.255481 C375.168581,248.54294 374.605148,247.396323 373.715087,246.48722 C372.033878,244.983525 369.882644,244.114665 367.631644,244.030184 C365.316958,243.906986 362.99768,244.161459 360.764294,244.783675 C356.50152,245.825646 352.430638,247.539591 348.703562,249.86155 C346.828702,250.894921 345.238069,252.377762 344.073612,254.177743 C343.384543,255.557908 343.02927,257.081455 343.036569,258.624978 C342.856924,263.465339 344.4574,268.559594 348.630071,271.950303 C346.082374,273.015019 345.224976,275.627667 344.62888,277.945471 C343.673493,281.647406 342.718107,285.406671 343.077398,289.174126 C343.257043,291.123375 343.787813,293.072623 343.502014,295.013682 C343.272911,295.927576 343.146914,296.864397 343.126392,297.806513 C343.371919,298.867805 344.233968,299.674143 345.306633,299.845853 L345.306633,299.845853 Z" id="路径" fill="#454B69"></path>
                <g id="编组" opacity="0.1" transform="translate(342.000000, 255.000000)" fill="#000000">
                    <path d="M86.5442991,27.1459375 C86.1750351,27.9574862 85.6748056,28.7018333 85.0639252,29.34875 C83.9207477,30.5578125 82.3992523,31.4935937 81.2231776,32.66125 C77.7031776,36.205625 77.7771963,41.3896875 74.9727103,45.348125 C74.7109055,45.7957892 74.2955269,46.1315714 73.8048598,46.2921875 C72.7357009,46.57375 71.8145794,45.5965625 71.3375701,44.7353125 C70.7940857,43.6866632 70.3824431,42.5739301 70.1121495,41.4228125 C70.0545794,41.7126562 69.9970093,42.0025 69.9476636,42.2509375 C69.4643675,45.1895119 69.9526791,48.2065863 71.3375701,50.8385938 C71.7899065,51.6667188 72.711028,52.66875 73.8048598,52.3954688 C74.2946711,52.2287694 74.7089779,51.8909158 74.9727103,51.443125 C77.7771963,47.4846875 77.7031776,42.33375 81.2231776,38.7645313 C82.3992523,37.5720313 83.9207477,36.6445313 85.0639252,35.4520313 C86.8212106,33.6570828 87.568496,31.094987 87.0542056,28.6282812 C86.9279296,28.1200083 86.7572972,27.6239647 86.5442991,27.1459375 Z" id="路径"></path>
                    <path d="M78.8792523,2.6334375 C78.3877295,2.87130528 77.9592911,3.2232411 77.6291589,3.6603125 C77.464806,4.08647694 77.464806,4.55914806 77.6291589,4.9853125 C77.9537034,6.27210987 78.3687063,7.53404199 78.871028,8.7615625 L78.871028,8.7615625 C80.8432852,7.43016474 81.526495,4.83088343 80.4665421,2.69140625 C80.3064099,2.35034413 80.1135953,2.02583653 79.8908411,1.7225 C79.5988113,2.07345853 79.2581199,2.38025178 78.8792523,2.6334375 Z" id="路径"></path>
                    <path d="M6.34093458,10.3101563 C3.42713014,7.89270441 1.50764099,4.47271471 0.954018692,0.7121875 C0.806490721,1.45430699 0.723930987,2.20803201 0.70728972,2.9646875 C0.518548958,6.58070337 1.46523438,10.1647734 3.41308411,13.2085938 C4.00207938,11.9129443 5.04437074,10.8811237 6.34093458,10.3101563 L6.34093458,10.3101563 Z" id="路径"></path>
                    <path d="M69.9723364,36.205625 C70.2848598,34.3423438 70.9757009,32.363125 70.0381308,30.6571875 C68.9936449,28.7525 66.328972,27.924375 63.8863551,27.4440625 C61.4437383,26.96375 58.7790654,26.5579688 57.0766355,25.0259375 C56.2273371,24.1482304 55.5321104,23.131771 55.0205607,22.0198437 C53.8609346,19.9578125 52.248972,17.8792187 49.7323364,17.0014062 C45.7271028,15.5853125 41.0803738,17.6142187 36.8037383,16.9103125 C35.5700935,16.7032812 34.402243,16.2726562 33.1603738,16.0821875 C31.0676774,15.7742742 28.9321044,15.9788 26.9345794,16.6784375 C21.0871028,18.61625 17.2792523,23.5021875 15.5357009,28.5454687 C13.7921495,33.58875 13.751028,38.9135937 13.2,44.1473437 C13.0601869,45.4226563 12.2213084,47.1285938 10.7327103,46.8139063 C10.5764486,44.7684375 10.3872897,42.6732813 9.13719626,40.87625 C7.72726486,38.9167899 5.27512862,38.0183331 2.94429907,38.6071875 C2.25327289,38.4516492 1.63882097,38.0557941 1.20897196,37.4892187 C1.29938476,38.2483741 1.29938476,39.0156884 1.20897196,39.7748437 C0.978225269,40.6989072 0.851323299,41.6461514 0.830654206,42.59875 C1.04740322,43.682994 1.89718981,44.5255514 2.97719626,44.7270312 C5.30974458,44.1399467 7.76228127,45.0418298 9.17009346,47.004375 C10.4201869,48.7682812 10.6093458,50.8965625 10.7656075,52.93375 C12.2542056,53.2484375 13.0930841,51.5507812 13.2328972,50.2671875 C13.7839252,45.0417187 13.8250467,39.716875 15.5685981,34.6653125 C17.3121495,29.61375 21.12,24.7278125 26.9674766,22.7982812 C28.9655533,22.1011939 31.1005103,21.8967271 33.193271,22.2020312 C34.4351402,22.4090625 35.6029907,22.8479687 36.8366355,23.0301562 C41.113271,23.7423437 45.76,21.7051562 49.7652336,23.12125 C52.2818692,24.015625 53.8773832,26.0776562 55.0534579,28.1396875 C55.5650076,29.2516147 56.2602343,30.2680741 57.1095327,31.1457812 C58.8119626,32.6860937 61.4766355,33.0835937 63.9192523,33.5639062 C66.3618692,34.0442187 68.8538318,34.8226562 69.9476636,36.5782812 C69.9065421,36.4540625 69.9476636,36.3298437 69.9723364,36.205625 Z" id="路径"></path>
                    <path d="M1.17607477,33.6301562 C1.31153755,32.0875337 1.22008432,30.5332251 0.904672897,29.0175 C0.663657786,30.6177651 0.61120719,32.2410946 0.748411215,33.85375 C0.748411215,34.2678125 0.838878505,34.681875 0.896448598,35.0876563 C0.986915888,34.5990625 1.11028037,34.11875 1.17607477,33.6301562 Z" id="路径"></path>
                </g>
                <path d="M303,419.64599 L303,404.434277 C303,404.196902 303.184411,404.004472 303.411894,404.004472 L305.067548,404.004472 C305.295031,404.004472 305.479442,404.196902 305.479442,404.434277 L305.479442,410.763361 L312.198972,404.265726 C312.521363,403.985339 312.968692,403.92116 313.351639,404.100352 C313.734585,404.279544 313.986203,404.67078 314,405.10848 L314,418.887511 C313.986203,419.325211 313.734585,419.716447 313.351639,419.895639 C312.968692,420.074831 312.521363,420.010652 312.198972,419.730265 L305.479442,413.274768 L305.479442,419.570142 C305.479442,419.807516 305.295031,420 305.067548,420 L303.411894,420 C303.210016,420.003248 303.035605,419.85337 303,419.64599 Z" id="路径" fill="#444053"></path>
                <path d="M468,404.405573 L468,419.571409 C468,419.686527 467.95542,419.796813 467.876245,419.87742 C467.79707,419.958027 467.68998,420.002175 467.579102,420 L465.960265,420 C465.73228,420 465.547461,419.808068 465.547461,419.571409 L465.547461,413.261413 L458.813098,419.73105 C458.488349,420.008814 458.040126,420.071847 457.655887,419.893786 C457.271649,419.715725 457.017604,419.327252 457,418.890837 L457,405.10295 C457.017604,404.666534 457.271649,404.278061 457.655887,404.1 C458.040126,403.921939 458.488349,403.984972 458.813098,404.262737 L465.547461,410.698765 L465.547461,404.43078 C465.547461,404.194121 465.73228,404.002271 465.960265,404.002271 L467.579102,404.002271 C467.801046,403.997357 467.986992,404.175529 468,404.405573 Z" id="路径" fill="#444053"></path>
                <path d="M382.119663,419.999662 L378.686874,419.999662 C377.755239,419.999662 377,419.243242 377,418.310151 L377,405.68951 C377,404.756419 377.755239,404 378.686874,404 L382.119663,404 C383.051297,404 383.806537,404.756419 383.806537,405.68951 L383.806537,418.310151 C383.806537,419.243242 383.051297,419.999662 382.119663,419.999662 Z M393,418.310151 L393,405.68951 C393,404.756419 392.244761,404 391.313126,404 L387.8466,404 C386.914965,404 386.159726,404.756419 386.159726,405.68951 L386.159726,418.310151 C386.159726,419.243242 386.914965,419.999662 387.8466,419.999662 L391.279388,419.999662 C391.732592,420.008742 392.170373,419.834757 392.494058,419.516923 C392.817743,419.199089 393.000091,418.764154 393,418.310151 Z" id="形状" fill="#444053"></path>
                <rect id="矩形" fill="#444053" opacity="0.6" x="287" y="385" width="197" height="2"></rect>
                <circle id="椭圆形" fill="#444053" cx="347" cy="386" r="5"></circle>
                <rect id="矩形" fill="#444053" x="287" y="385" width="61" height="2"></rect>
                <ellipse id="椭圆形" fill="#F9A826" cx="786" cy="622.5" rx="49" ry="9.5"></ellipse>
                <ellipse id="椭圆形" fill="#3F3D56" cx="785.5" cy="618.5" rx="5.5" ry="7.5"></ellipse>
                <ellipse id="椭圆形" fill="#3F3D56" cx="785.5" cy="609.5" rx="5.5" ry="7.5"></ellipse>
                <ellipse id="椭圆形" fill="#3F3D56" cx="785.5" cy="600.5" rx="5.5" ry="7.5"></ellipse>
                <ellipse id="椭圆形" fill="#3F3D56" cx="785.5" cy="591.5" rx="5.5" ry="7.5"></ellipse>
                <ellipse id="椭圆形" fill="#3F3D56" cx="785.5" cy="582.5" rx="5.5" ry="7.5"></ellipse>
                <ellipse id="椭圆形" fill="#3F3D56" cx="785.5" cy="573.5" rx="5.5" ry="7.5"></ellipse>
                <ellipse id="椭圆形" fill="#3F3D56" cx="785.5" cy="564.5" rx="5.5" ry="7.5"></ellipse>
                <path d="M806.219731,502.163902 C806.988196,501.17046 807.689864,500.126051 808.320013,499.037705 L793.504067,496.569655 L809.524826,496.693057 C812.625254,489.863044 812.810703,482.045243 810.037686,475.072937 L788.562705,486.3437 L808.376998,471.625894 C803.317048,462.78494 793.7955,457.539506 783.70101,458.031857 C773.60652,458.524208 764.629079,464.671916 760.435127,473.964221 C756.241175,483.256527 757.532851,494.137736 763.782628,502.163902 C762.588725,503.695852 761.557347,505.350295 760.70547,507.100003 L779.933637,517.194328 L759.435532,510.242653 C756.511807,518.976138 758.146701,528.610914 763.782628,535.861015 C755.08296,547.045719 756.348933,563.108911 766.690789,572.760962 C777.032645,582.413013 792.977855,582.413013 803.319711,572.760962 C813.661567,563.108911 814.92754,547.045719 806.227871,535.861015 C813.924015,525.962731 813.924015,512.029279 806.227871,502.130995 L806.219731,502.163902 Z" id="路径" fill="#F9A826"></path>
                <path d="M758,518.398805 C757.98888,524.476728 760.023106,530.380369 763.773251,535.152458 C755.071891,546.263311 756.33811,562.22044 766.681977,571.80876 C777.025844,581.39708 792.974156,581.39708 803.318023,571.80876 C813.66189,562.22044 814.928109,546.263311 806.226749,535.152458 C809.841891,530.551333 758,515.35863 758,518.398805 Z" id="路径" fill="#000000" opacity="0.1"></path>
                <ellipse id="椭圆形" fill="#F9A826" opacity="0.1" cx="238.5" cy="665" rx="81.5" ry="17"></ellipse>
                <path d="M264.829871,663.829177 C263.195548,663.229108 261.446823,663.327749 259.738955,663.138686 C256.192819,662.726439 252.890974,661.114985 250.374285,658.568293 C248.755771,656.922148 247.48299,654.965301 246.631685,652.814201 C247.171012,653.011485 247.710338,653.216988 248.266008,653.438931 C246.631685,649.60013 248.347724,645.292781 249.851301,641.412879 C252.400845,634.836774 254.811472,628.225049 257.083181,621.577703 C262.803311,604.734654 267.70628,587.217554 267.600049,569.297668 C267.600049,562.820205 266.415165,556.696207 266.186359,550.226964 C266.014755,545.426407 266.750201,540.634071 266.717514,535.825294 C266.717514,535.151243 266.717514,534.485413 266.668485,533.811362 C269.631164,531.202368 271.222113,527.357779 270.974926,523.404676 C270.891888,522.388414 270.747253,521.378199 270.54183,520.379667 C270.252468,518.64501 269.870574,516.927262 269.397804,515.233865 C268.858477,513.450097 268.123032,511.740309 267.493818,509.997642 C266.276247,506.619168 265.450914,503.100952 264.413119,499.664937 C264.797592,499.704582 265.173011,499.807324 265.524459,499.969082 C265.262718,499.660197 265.082821,499.289784 265.001475,498.892244 C264.391286,496.704845 264.061747,494.447915 264.020881,492.176397 L264.715469,491.864032 C265.028303,489.646214 264.914562,487.388585 264.380433,485.213946 C264.77267,481.68751 265.385541,478.136413 265.761435,474.626417 C265.900353,473.311196 265.843152,471.65895 264.641924,471.338365 C264.396776,469.455954 264.298716,467.548884 264.200657,465.650034 C263.857449,459.024608 263.516965,452.401922 263.179205,445.781977 C262.835997,439.13189 262.49279,432.490024 262.362044,425.831718 C262.272156,421.606571 262.223126,417.233461 261.226189,413.189156 C261.39847,411.251462 261.201553,409.298497 260.646005,407.435064 C259.126084,402.593407 254.402891,398.754606 249.614325,399.02587 C248.186192,396.970344 246.420377,395.174586 244.392663,393.715665 C245.348742,391.561991 246.492768,389.342556 247.432504,387.599888 C255.097478,385.092748 260.703206,377.489126 260.703206,368.446982 C260.714517,365.137091 259.944325,361.871807 258.456012,358.91985 C258.596634,358.557084 258.716678,358.186582 258.815563,357.810132 C259.225912,356.034851 259.097826,354.176591 258.44784,352.475267 C258.217814,351.822044 257.944824,351.184946 257.630679,350.568197 C257.418217,350.15719 257.189412,349.746184 256.952435,349.351617 L256.535682,348.718667 C256.282362,348.332321 256.020871,347.962415 255.718521,347.600729 C255.138145,346.816839 254.516201,346.064977 253.855393,345.348413 C253.041685,344.462544 252.144003,343.658644 251.175103,342.948135 C249.861061,341.965711 248.358402,341.268705 246.762431,340.901322 C245.839572,340.718022 244.900143,340.632613 243.959567,340.646498 C243.395726,340.646498 242.823713,340.646498 242.259871,340.695819 C241.115845,340.76158 239.979991,340.843781 238.844136,340.835561 C238.468242,340.835561 238.084176,340.835561 237.708282,340.77802 C235.708755,340.509912 233.731398,340.095059 231.792033,339.536781 L230.811439,339.331277 C230.476403,339.265516 230.149538,339.207975 229.814502,339.166875 C228.918038,339.046365 228.014065,338.99142 227.109698,339.001084 L226.202648,339.001084 C225.296685,339.046347 224.393756,339.139645 223.497844,339.281957 L222.598966,339.421699 C220.32913,339.779275 218.116886,340.439978 216.020816,341.38631 C215.751153,341.509612 215.473318,341.649354 215.203655,341.797317 L215.040223,341.887738 C214.819589,342.00282 214.598955,342.126122 214.386493,342.257644 L214.263919,342.331625 L213.569332,342.775512 L213.512131,342.816613 C207.023868,347.206163 203.191381,355.524936 202.218959,363.777948 C201.132134,373.042035 203.03612,382.380104 204.940107,391.49623 L206.656146,399.716361 C206.72969,400.086267 206.811406,400.447953 206.884951,400.817859 C204.471978,402.809532 202.616072,405.398863 201.499857,408.331059 C199.865534,412.441124 199.824676,416.888215 199.955422,421.343526 C199.955422,422.247741 200.004451,423.151955 200.094339,424.05617 C199.890049,425.765957 199.710273,427.483964 199.595871,429.210192 C199.081059,437.183719 200.045309,445.198347 199.791989,453.188315 C199.595871,459.345193 198.672478,465.518512 199.121917,471.634289 C199.514154,477.059576 200.96053,482.32046 202.390563,487.556683 L204.44981,495.020563 C204.516576,495.406761 204.695739,495.764353 204.964622,496.048079 C205.302739,496.276485 205.716537,496.362098 206.116819,496.286463 C204.777268,499.347444 203.65761,502.501099 202.766457,505.723173 C202.150752,507.696499 201.74534,509.730079 201.557058,511.78963 C201.287395,515.55445 202.153586,519.29461 203.019777,522.952568 C204.327236,528.432656 205.629246,533.934664 206.925809,539.458592 C207.84103,543.322054 208.753527,547.182775 209.6633,551.040757 C211.461055,558.652598 213.266982,566.313761 213.602018,574.147546 C213.788821,578.081759 213.514546,582.024416 212.784857,585.894113 C210.427333,597.482665 210.084498,609.394591 211.771577,621.100935 C213.13535,630.977284 215.347233,640.716198 218.382413,650.20842 C219.044314,649.854954 219.714386,649.526149 220.400802,649.222004 L220.114795,649.756313 C219.172336,651.400339 218.300697,653.085466 217.499879,654.811693 C216.960069,655.933586 216.493303,657.08958 216.102532,658.272369 C215.056566,661.560421 214.893133,665.062197 214.746044,668.522872 C214.671199,669.188125 214.729548,669.861719 214.917648,670.503924 C215.367087,671.745164 216.658202,672.378114 217.85943,672.723359 C221.389567,673.734435 225.058622,673.37275 228.727677,672.895982 C228.744672,672.977597 228.769296,673.057413 228.801222,673.134366 C229.250661,674.375606 230.533604,675.008556 231.743003,675.353801 C236.793061,676.800544 242.120954,675.436003 247.326273,674.942795 C252.531591,674.449587 257.647022,674.811273 262.656222,673.602913 C263.402815,673.442397 264.119742,673.165019 264.780842,672.7809 C266.068772,671.874695 267.013545,670.556329 267.461131,669.04074 C267.617943,668.648056 267.722358,668.236208 267.771653,667.815941 C267.975943,666.015732 266.447851,664.429247 264.829871,663.829177 Z M247.546906,587.702542 C247.265144,589.628307 246.714958,591.504511 245.912583,593.275791 C241.981681,601.684303 239.162997,610.574697 237.528506,619.719953 C236.456015,625.761258 235.835953,631.87504 235.67355,638.009745 C235.591834,642.530817 235.763438,647.265613 233.892138,651.326358 L234.570382,651.219496 C234.35792,651.614062 234.153629,652.041509 233.957511,652.353874 L233.859451,652.534717 C232.727679,650.596177 231.970749,648.459727 231.628601,646.238096 C231.628601,646.164115 231.260878,646.106574 230.697036,646.073694 C228.386973,633.089082 227.586222,619.878235 228.310925,606.707485 C228.321942,605.109947 228.541736,603.5208 228.964654,601.98091 C229.381406,600.657469 230.084165,599.44911 230.598977,598.166769 C231.415303,596.012495 231.964226,593.765115 232.2333,591.475582 C233.123308,585.62412 233.468013,579.701821 233.262923,573.78586 C233.066805,568.204391 234.349748,562.655802 235.444745,557.098994 C235.967728,554.460331 236.449853,551.813449 236.711345,549.166567 L236.760375,548.632258 C241.622216,556.700521 245.019958,565.573742 246.795118,574.838037 C247.782103,579.050394 248.036457,583.40287 247.546906,587.702542 Z M212.572395,468.905206 L212.833887,469.135369 C213.623749,469.834392 214.35109,470.601809 215.007536,471.428786 C215.334172,471.789114 215.56963,472.22335 215.693952,472.694686 C215.9391,473.894825 214.950335,474.914122 214.141345,475.793676 C213.789816,476.174905 213.459715,476.575575 213.15258,476.993815 C212.978252,474.297612 212.793028,471.601409 212.59691,468.905206 L212.572395,468.905206 Z" id="形状" fill="url(#linearGradient-4)"></path>
                <path d="M201.267632,418 L200.381111,424.926727 C200.082917,427.276429 199.784724,429.617973 199.623538,431.975834 C199.083566,439.824493 200.082917,447.705786 199.82502,455.570763 C199.615479,461.62451 198.664484,467.670098 199.123863,473.715687 C199.534886,479.051469 201.033913,484.240396 202.532939,489.38037 L204.66059,496.72319 C204.733312,497.10691 204.918692,497.459497 205.192502,497.734867 C205.602468,497.980543 206.089349,498.059288 206.554521,497.955152 L216,497.090331 C215.395554,494.283742 214.726633,491.379248 214.388144,488.499231 C214.130247,486.247433 213.97712,483.979318 213.815934,481.711202 C213.316259,474.645777 212.74405,467.580353 212.204078,460.498611 L211.196668,448.097404 C210.769526,442.712669 210.326265,437.303458 208.988424,432.073738 C207.646001,426.791303 204.987716,421.945685 201.267632,418 Z" id="路径" fill="#F9A826"></path>
                <path d="M201.267632,418 L200.381111,424.926727 C200.082917,427.276429 199.784724,429.617973 199.623538,431.975834 C199.083566,439.824493 200.082917,447.705786 199.82502,455.570763 C199.615479,461.62451 198.664484,467.670098 199.123863,473.715687 C199.534886,479.051469 201.033913,484.240396 202.532939,489.38037 L204.66059,496.72319 C204.733312,497.10691 204.918692,497.459497 205.192502,497.734867 C205.602468,497.980543 206.089349,498.059288 206.554521,497.955152 L216,497.090331 C215.395554,494.283742 214.726633,491.379248 214.388144,488.499231 C214.130247,486.247433 213.97712,483.979318 213.815934,481.711202 C213.316259,474.645777 212.74405,467.580353 212.204078,460.498611 L211.196668,448.097404 C210.769526,442.712669 210.326265,437.303458 208.988424,432.073738 C207.646001,426.791303 204.987716,421.945685 201.267632,418 Z" id="路径" fill="#000000" opacity="0.1"></path>
                <path d="M218.912975,654.63787 C218.352517,655.748381 217.862772,656.893667 217.446706,658.066794 C216.35515,661.307044 216.192232,664.785187 216.029313,668.205907 C215.957318,668.864911 216.018274,669.53177 216.208523,670.166464 C216.680988,671.396939 218.033214,672.02038 219.295834,672.35671 C224.582548,673.792264 230.15437,672.446945 235.587711,671.954755 C241.021052,671.462565 246.389225,671.823504 251.63521,670.634045 C252.409878,670.483437 253.158888,670.220961 253.859051,669.854744 C255.187339,668.983979 256.179212,667.681142 256.6694,666.163319 C256.827369,665.774296 256.934171,665.36615 256.987091,664.94925 C257.158156,663.144554 255.602282,661.585952 253.907927,660.995324 C252.213571,660.404696 250.364443,660.494931 248.580483,660.314461 C241.026229,659.53613 234.932496,653.746113 233.722291,646.196812 C233.657124,645.80306 224.892094,646.040952 223.947165,646.549548 C222.871901,647.148379 222.220226,648.633152 221.609281,649.642142 C220.64806,651.266369 219.749291,652.931611 218.912975,654.63787 Z" id="路径" fill="#A26565"></path>
                <path d="M218.912975,654.63787 C218.352517,655.748381 217.862772,656.893667 217.446706,658.066794 C216.35515,661.307044 216.192232,664.785187 216.029313,668.205907 C215.957318,668.864911 216.018274,669.53177 216.208523,670.166464 C216.680988,671.396939 218.033214,672.02038 219.295834,672.35671 C224.582548,673.792264 230.15437,672.446945 235.587711,671.954755 C241.021052,671.462565 246.389225,671.823504 251.63521,670.634045 C252.409878,670.483437 253.158888,670.220961 253.859051,669.854744 C255.187339,668.983979 256.179212,667.681142 256.6694,666.163319 C256.827369,665.774296 256.934171,665.36615 256.987091,664.94925 C257.158156,663.144554 255.602282,661.585952 253.907927,660.995324 C252.213571,660.404696 250.364443,660.494931 248.580483,660.314461 C241.026229,659.53613 234.932496,653.746113 233.722291,646.196812 C233.657124,645.80306 224.892094,646.040952 223.947165,646.549548 C222.871901,647.148379 222.220226,648.633152 221.609281,649.642142 C220.64806,651.266369 219.749291,652.931611 218.912975,654.63787 Z" id="路径" fill="#000000" opacity="0.1"></path>
                <path d="M233.915734,656.669103 C233.351731,657.77362 232.861813,658.914821 232.449258,660.085069 C231.3494,663.361774 231.186459,666.794122 231.031664,670.210087 C230.955715,670.868134 231.016754,671.534871 231.2109,672.167919 C231.675284,673.396683 233.027701,674.019257 234.2905,674.363311 C239.577962,675.788678 245.158719,674.445229 250.584682,673.953723 C256.010644,673.462217 261.395871,673.822655 266.634451,672.634849 C267.412829,672.476664 268.162777,672.200452 268.858607,671.815673 C270.188906,670.9481 271.181473,669.646349 271.669353,668.12938 C271.827345,667.740898 271.934162,667.333319 271.987089,666.916999 C272.158178,665.123003 270.602084,663.558376 268.907489,662.968569 C267.212894,662.378762 265.363505,662.477063 263.579292,662.288653 C256.027753,661.509554 249.935339,655.733013 248.718998,648.198821 C248.653821,647.805616 239.887552,648.034985 238.942489,648.542875 C237.858926,649.140873 237.207159,650.623582 236.596127,651.631169 C235.667358,653.294097 234.754884,654.965217 233.915734,656.669103 Z" id="路径" fill="#A26565"></path>
                <path d="M271.998107,569.608416 C272.113486,587.378775 266.937919,604.746197 260.864045,621.414646 C258.457571,628.026108 255.905499,634.580007 253.207831,641.076344 C251.609009,644.924807 249.804154,649.200876 251.518355,653 C246.573545,651.125108 241.546322,650.023198 236.346031,650.886635 C238.323955,646.857261 238.134404,642.170031 238.225058,637.729497 C238.392894,631.643699 239.043245,625.580705 240.170017,619.597316 C241.915566,610.490686 244.907725,601.66678 249.062433,593.373496 C249.902273,591.624651 250.482504,589.763134 250.784875,587.847498 C251.460665,583.620767 250.933219,579.278912 250.051394,575.093297 C248.154299,565.848317 244.549117,557.036455 239.420054,549.10795 L239.370606,549.634236 C239.062761,552.278783 238.617124,554.905543 238.035507,557.503849 C236.873477,563.005177 235.513655,568.514728 235.719688,574.04895 C235.934661,579.917105 235.570286,585.792126 234.63183,591.589059 C234.329622,593.865261 233.734066,596.092988 232.85994,598.216967 C232.291287,599.491565 231.549566,600.683931 231.104533,602.007868 C230.659047,603.531121 230.426097,605.108373 230.41226,606.695098 C229.752952,620.074262 230.41226,633.659007 233.148387,646.775029 C228.557956,646.413208 223.967524,647.737145 219.863333,649.792948 C216.654334,640.404116 214.309588,630.743 212.858186,620.929476 C211.069978,609.323595 211.433126,597.488708 213.929561,586.013722 C214.707593,582.186896 214.998339,578.277373 214.794903,574.377878 C214.440525,566.606943 212.528532,559.008696 210.62478,551.459788 L207.723825,539.947293 C206.350267,534.465152 204.976709,529.007681 203.603151,523.574879 C202.688361,519.948443 201.76533,516.239775 202.053777,512.506437 C202.254959,510.458249 202.686216,508.439112 203.339428,506.487047 C205.397045,499.847752 208.474718,493.567249 212.462601,487.869697 C228.343681,488.757803 244.414312,487.277625 260.262426,486.06059 C261.030864,485.909205 261.828259,486.043762 262.504073,486.438858 C263.04424,486.986369 263.366443,487.711192 263.410621,488.478214 L269.369117,522.19338 C270.333897,526.879317 270.899077,531.638387 271.058593,536.419535 C271.058593,541.188998 270.316872,545.942014 270.498182,550.703253 C270.745422,557.117358 271.965142,563.186088 271.998107,569.608416 Z" id="路径" fill="#454B69"></path>
                <path d="M239,550.186402 C238.694875,552.812126 238.253176,555.420189 237.676698,558 C234.254084,552.080608 230.561909,546.308179 227.408856,540.241823 C226.592003,538.682369 225.824162,537.098421 225.048151,535.514473 L222.72012,530.778959 C222.287188,529.889009 221.854256,528.999059 221.462167,528.09278 C220.823744,526.790864 220.333295,525.42154 220,524.01044 C221.143594,523.798158 223.969905,526.884407 224.819433,527.69271 C226.552279,529.407753 228.188504,531.217655 229.72055,533.114058 C231.581282,535.22208 233.29007,537.459373 234.83405,539.809095 C236.810975,543.002213 238.220403,546.513072 239,550.186402 Z" id="路径" fill="#000000" opacity="0.1"></path>
                <path d="M252,387.211178 C252,387.211178 243.171617,401.211985 244.805281,404.143533 C246.438944,407.07508 217,401.54045 217,401.54045 C217,401.54045 233.031353,387.539643 231.389439,381.676548 C229.747525,375.813454 252,387.211178 252,387.211178 Z" id="路径" fill="#EFB7B9"></path>
                <circle id="椭圆形" fill="#EFB7B9" cx="244" cy="371" r="20"></circle>
                <path d="M252.694975,400.960027 C250.553105,398.002814 247.647266,395.677132 244.285284,394.22935 C242.348014,393.538963 240.344667,393.048186 238.306714,392.764728 L230.327017,391.365932 C228.375505,391.020347 226.283419,390.699447 224.464213,391.497584 C223.544382,391.966998 222.706703,392.581036 221.983479,393.316018 C219.213325,395.874992 216.525862,398.680812 213.044564,400.16189 C212.093616,400.565073 211.101322,400.861288 210.150374,401.264471 C206.25562,402.910113 203.344891,406.415331 201.699337,410.315503 C199.962823,414.38024 199.913208,418.798789 200.045514,423.217339 C200.043212,424.742697 200.195584,426.264394 200.500315,427.759312 C200.898365,429.183164 201.404228,430.57497 202.013564,431.922787 C203.11303,434.807372 204.035358,437.75576 204.775448,440.751658 C206.842727,448.623313 208.562703,456.577251 209.935377,464.613471 C210.051824,465.764634 210.391624,466.882382 210.93594,467.904756 C211.706845,468.928106 212.639608,469.820129 213.697824,470.546012 C214.537249,471.231783 215.309706,471.994909 216.004908,472.825226 C216.351364,473.164351 216.609632,473.582313 216.757397,474.043001 C217.01374,475.227864 215.930486,476.248162 215.103574,477.112124 C213.324062,478.918896 212.03756,481.147807 211.365934,483.587727 C210.951176,484.088486 210.738899,484.725102 210.770557,485.373249 C210.942805,485.824089 211.007898,486.308468 210.960747,486.788501 C210.797975,487.225218 210.541138,487.621205 210.208257,487.948679 C209.43639,488.949575 209.135091,490.232755 209.381346,491.470353 C215.579496,494.150203 222.212994,495.694451 228.962613,496.028783 C230.616436,496.111065 232.270259,496.111065 233.924082,496.308542 C235.098297,496.45665 236.255973,496.695268 237.430187,496.835147 C239.134182,496.994301 240.847063,497.038285 242.557039,496.966799 C251.462877,496.785778 260.625058,496.563616 268.803213,493.05017 C269.572241,488.878467 267.910149,484.624481 266.86824,480.510376 C265.214417,473.927806 264.800961,467.188901 263.560594,460.548735 C262.733682,456.01499 261.493315,451.547071 260.79044,446.980414 C260.087565,442.413756 259.963528,437.682535 261.187358,433.239301 C262.303688,429.306216 262.642722,425.290848 263.800398,421.365991 C264.958074,417.441135 265.768448,413.187149 264.461927,409.303433 C262.808104,404.498158 257.788751,400.688496 252.694975,400.960027 Z" id="路径" fill="#F9A826"></path>
                <path d="M261.742465,360.534752 C262.707386,357.024967 260.810253,353.367918 258.553319,350.512638 C256.100129,347.444644 252.976401,344.679359 249.141249,343.910315 C246.025698,343.280354 242.795665,344.041216 239.622874,343.787596 C236.81806,343.5667 234.119552,342.552217 231.331093,342.151332 C228.801074,341.878497 226.244852,341.974953 223.742561,342.437678 C221.36791,342.790873 219.046664,343.439493 216.832744,344.368469 C208.410127,348.107331 203.479216,357.319494 202.334395,366.458026 C201.189573,375.596557 203.193011,384.80872 205.188272,393.799988 L206.995455,401.932217 C208.876233,410.399881 210.757012,418.90027 211.255827,427.556103 C211.754642,436.211937 210.82243,445.096847 207.265305,453 C218.768891,446.817581 227.682239,436.721656 232.394142,424.537197 C233.669801,421.191038 234.618367,417.713979 236.041217,414.425089 C237.259635,411.594353 238.821498,408.910881 239.900902,406.022876 C241.120982,402.763358 241.706641,399.300437 241.626312,395.820773 C241.560893,393.202752 241.127497,390.601093 241.201092,387.983072 C241.274688,385.36505 241.945226,382.640671 243.752409,380.742606 C245.387869,379.065436 247.636626,378.288211 249.705482,377.200095 C252.962339,375.526284 255.808085,373.151335 258.038149,370.245976 C259.338339,368.544262 259.411935,367.79158 259.739027,365.86079 C260.066119,363.929999 261.235472,362.391911 261.742465,360.534752 Z" id="路径" fill="#A26565"></path>
                <path d="M262.017846,510.062596 C262.225156,512.131379 261.851997,514.216778 262.299788,516.268944 C262.639778,517.797683 263.427558,519.176871 263.891934,520.672377 C264.351356,522.399151 264.588234,524.177752 264.59679,525.964804 C264.66313,527.46031 264.547036,529.28815 263.220247,529.986053 C262.639778,530.293462 261.943214,530.293462 261.337867,530.55933 C260.73252,530.825197 260.218389,531.548025 260.566671,532.112994 C260.914953,532.677962 261.512008,532.58657 262.059308,532.694579 C262.606608,532.802588 263.19537,533.367557 262.88855,533.824517 C262.763652,533.974166 262.595681,534.081526 262.40759,534.131926 C261.853958,534.302753 261.328607,534.554734 260.848614,534.879679 C260.370462,535.228346 260.124588,535.813818 260.210097,536.400109 C260.277831,536.678847 260.469046,536.911259 260.729211,537.031068 C260.989375,537.150877 261.289935,537.144932 261.545177,537.014928 C261.301861,537.535817 261.169145,538.101651 261.155433,538.676601 C263.278294,539.590521 265.658221,538.394117 267.648403,537.239254 C268.508967,536.758225 269.339724,536.225518 270.13613,535.644048 C273.40492,533.129596 275.218522,529.156274 274.978907,525.034268 C274.88412,524.014593 274.726261,523.001795 274.506239,522.001715 C274.200067,520.259665 273.793051,518.536926 273.287252,516.842221 C272.715075,515.055923 271.935587,513.352708 271.2639,511.599643 C269.837603,507.869188 268.917144,503.964257 267.623525,500.183951 C267.537103,499.792022 267.317211,499.442456 267.001594,499.195256 C266.716305,499.054356 266.398079,498.994035 266.081134,499.02078 C264.62936,498.944424 263.174193,499.078747 261.760781,499.419582 C260.931538,499.668833 259.513533,500.250418 259.123789,501.081255 C258.734045,501.912091 259.355977,502.609994 259.729136,503.299588 C260.920998,505.38459 261.698232,507.681275 262.017846,510.062596 Z" id="路径" fill="#EFB7B9"></path>
                <path d="M260.392861,410 C260.80994,410.433647 261.160416,410.928518 261.432532,411.468009 C264.226648,416.622537 264.259137,422.783228 264.389096,428.663512 C264.5353,435.261307 264.892687,441.859102 265.250074,448.498134 L266.314112,468.291518 C266.419704,470.180137 266.517173,472.068756 266.785213,473.94088 C268.036067,474.262523 268.084802,475.911972 267.94672,477.239778 C267.045131,485.305582 264.811463,493.610556 267.134477,501.371213 C267.224041,501.769432 267.411234,502.138222 267.67868,502.443354 C266.499039,502.068009 265.237092,502.05081 264.047954,502.393871 C262.886447,502.641288 261.765551,503.078392 260.595921,503.350551 C259.117639,503.688688 257.444419,503.837139 256.437237,505 C255.295759,501.514213 254.386699,497.954351 253.716223,494.344561 C253.163898,491.045664 253.009572,487.647799 251.693738,484.596319 C251.16578,483.36748 250.451007,482.22936 249.801212,481.050004 C246.397914,474.881066 244.724694,467.912145 243.092085,461.033944 C242.359478,457.773192 242.183645,454.408935 242.57225,451.087768 C242.808543,449.572999 242.944223,448.043808 242.978371,446.510548 C242.879491,444.892365 242.670517,443.283063 242.352944,441.694157 C241.662903,437.030775 241.98728,432.270521 243.303268,427.748068 C244.521633,423.550221 245.593794,419.129699 248.176726,415.599878 C250.759659,412.070058 256.07985,410.057731 260.392861,410 Z" id="路径" fill="#000000" opacity="0.1"></path>
                <path d="M261.390742,409 C261.808237,409.436833 262.158947,409.93465 262.431208,410.476898 C265.22746,415.625413 265.259974,421.79703 265.390033,427.679868 C265.536348,434.280528 265.894008,440.881188 266.251668,447.481848 L267.31652,467.283828 C267.422192,469.173267 267.519736,471.062706 267.787981,472.935644 C269.039792,473.257426 269.088563,474.907591 268.942248,476.235974 C268.048098,484.305281 265.812722,492.605611 268.129384,500.377888 C268.219016,500.77628 268.406352,501.145231 268.674003,501.450495 C267.49346,501.074987 266.230548,501.05778 265.040501,501.40099 C263.878106,501.648515 262.756354,502.085809 261.58583,502.349835 C260.106417,502.69637 258.431918,502.836634 257.423966,504 C256.285271,500.49666 255.383604,496.918479 254.725258,493.290429 C254.172511,489.990099 254.018067,486.59901 252.701227,483.546205 C252.129358,482.331868 251.497223,481.147731 250.807254,479.99835 C247.393226,473.826733 245.726855,466.846535 244.092999,459.965347 C243.359671,456.703201 243.183703,453.337455 243.572766,450.014851 C244.185004,446.904343 244.110047,443.69473 243.353293,440.617162 C242.662604,435.954501 242.987239,431.194838 244.304343,426.673267 C245.523639,422.473597 246.596619,418.051155 249.181527,414.519802 C251.766434,410.988449 257.074435,409.066007 261.390742,409 Z" id="路径" fill="#F9A826"></path>
                <g id="编组" opacity="0.1" transform="translate(207.000000, 342.000000)" fill="#000000">
                    <path d="M52.2447059,8.96817518 C49.7741176,5.90248175 46.6282353,3.13927007 42.7658824,2.37080292 C39.6282353,1.74131387 36.3752941,2.50160584 33.18,2.24817518 C30.3552941,2.02744526 27.6376471,1.01372263 24.8294118,0.613138686 C22.2814482,0.340508106 19.7070973,0.436892376 17.1870588,0.899270073 C14.7955665,1.2522003 12.4578568,1.90033341 10.2282353,2.82861314 C9.02382713,3.36410376 7.87386797,4.01290706 6.79411765,4.76613139 C8.77873466,4.00074211 10.841517,3.45248895 12.9458824,3.13109489 C15.4630799,2.66812534 18.034802,2.57173563 20.58,2.8449635 C23.3964706,3.20467153 26.1058824,4.21021898 28.9388235,4.43094891 C32.1258824,4.68437956 35.3788235,3.93226277 38.5247059,4.55357664 C42.3870588,5.3220438 45.5494118,8.09343066 47.9952941,11.1591241 C50.2764706,14.0040876 52.1788235,17.6583942 51.2152941,21.1737226 C50.7047059,23.0213139 49.5188235,24.64 49.1976471,26.5448175 C48.8764706,28.449635 48.7941176,29.2262774 47.4764706,30.9267153 C45.7869932,33.1074226 43.7442791,34.9943299 41.4317647,36.510365 C42.0658824,36.2160584 42.7164706,35.9217518 43.3341176,35.6029197 C46.614073,33.9303635 49.4800019,31.5571954 51.7258824,28.6540146 C53.0352941,26.9535766 53.1094118,26.2014599 53.4388235,24.2721168 C53.7682353,22.3427737 54.9458824,20.7567883 55.4564706,18.9010219 C56.4282353,15.4756204 54.5176471,11.8213139 52.2447059,8.96817518 Z" id="路径"></path>
                    <path d="M37.3388235,39.2245255 C37.6799239,38.8734059 38.0519964,38.5532968 38.4505882,38.2680292 C36.5482353,39.1836496 34.5470588,39.9848175 33.0894118,41.5381022 C31.2694118,43.4265693 30.6188235,46.1570803 30.52,48.7731387 C30.4211765,51.3891971 30.8905882,53.9889051 30.9482353,56.5967883 C31.0291725,60.0765079 30.4393749,63.5395158 29.2105882,66.7994161 C28.1235294,69.6852555 26.5505882,72.3585401 25.3235294,75.1953285 C23.8988235,78.4654015 22.9435294,81.9480292 21.6588235,85.2916788 C17.5418525,95.8478306 10.2314084,104.878487 0.732941176,111.141606 C0.683529412,111.247883 0.642352941,111.362336 0.592941176,111.468613 C12.1781142,105.290831 21.1546784,95.2024757 25.9,83.0271533 C27.1847059,79.6835036 28.14,76.2090511 29.5729412,72.9226277 C30.8,70.0940146 32.3729412,67.4125547 33.46,64.5267153 C34.6887331,61.2696412 35.2785462,57.8093172 35.1976471,54.3322628 C35.1317647,51.7162044 34.6952941,49.1164964 34.7694118,46.500438 C34.8435294,43.8843796 35.5188235,41.1211679 37.3388235,39.2245255 Z" id="路径"></path>
                </g>
            </g>
        </g>
    </g>
</svg>