<?xml version="1.0" encoding="UTF-8"?>
<svg width="400px" height="99px" viewBox="0 0 283 99" version="1.1" xmlns="http://www.w3.org/2000/svg" xmlns:xlink="http://www.w3.org/1999/xlink">
    <title>页面 2</title>
    <defs>
        <linearGradient x1="-2.31387508e-13%" y1="50.000002%" x2="100%" y2="50.000002%" id="linearGradient-1">
            <stop stop-color="#808080" stop-opacity="0.25" offset="0%"></stop>
            <stop stop-color="#808080" stop-opacity="0.12" offset="53.514%"></stop>
            <stop stop-color="#808080" stop-opacity="0.1" offset="100%"></stop>
        </linearGradient>
    </defs>
    <g id="页面-2" stroke="none" stroke-width="1" fill="none" fill-rule="evenodd">
        <g id="桌面端-HD" transform="translate(1.000000, 0.000000)">
            <g id="undraw_Graduation_ktn0" transform="translate(-1.000000, 0.000000)" fill-rule="nonzero">
                <ellipse id="椭圆形" fill="#E0E0E0" transform="translate(8.259106, 49.515171) rotate(-63.610790) translate(-8.259106, -49.515171) " cx="8.25910602" cy="49.5151712" rx="5.73476825" ry="1"></ellipse>
                <ellipse id="椭圆形" fill="#E0E0E0" transform="translate(63.715892, 87.077726) rotate(-63.610790) translate(-63.715892, -87.077726) " cx="63.7158919" cy="87.0777259" rx="5.73432287" ry="1"></ellipse>
                <polygon id="矩形" fill="#F55F44" transform="translate(30.570320, 75.724463) rotate(39.547320) translate(-30.570320, -75.724463) " points="28.2496932 70.0883184 31.305389 70.5639857 32.890947 81.360608 29.8352512 80.8849407"></polygon>
                <polygon id="矩形" fill="#000000" opacity="0.05" transform="translate(32.175080, 76.868146) rotate(-166.768900) translate(-32.175080, -76.868146) " points="30.2886531 70.7783683 33.3419775 71.0212443 34.0615077 82.9579242 31.0081833 82.7150481"></polygon>
                <polygon id="矩形" fill="#F55F44" transform="translate(32.337304, 76.920166) rotate(-166.768900) translate(-32.337304, -76.920166) " points="30.6206993 70.8438962 33.3343778 71.0597553 34.053908 82.9964351 31.3402295 82.7805761"></polygon>
                <polygon id="矩形" fill="url(#linearGradient-1)" transform="translate(35.989813, 68.280182) rotate(-63.610790) translate(-35.989813, -68.280182) " points="34.4534158 35.7737687 46.4946902 34.4236749 37.5262103 100.786595 25.4849359 102.136689"></polygon>
                <path d="M62.0158963,93 C60.9196477,92.2953334 5.20562382,55.2265399 6.00859652,55.7604423 C9.10088973,49.4355911 9.9927002,45 9.9927002,45 L66,82.2395577 C66,82.2395577 64.0331469,86.8652774 62.0158963,93 Z" id="路径" fill="#F5F5F5"></path>
                <polygon id="矩形" fill="#000000" opacity="0.05" transform="translate(34.797099, 67.473086) rotate(26.389210) translate(-34.797099, -67.473086) " points="31.4188081 61.3694777 36.8895864 62.1088147 38.1753899 73.5766943 32.7046116 72.8373573"></polygon>
                <polygon id="矩形" fill="#F55F44" transform="translate(34.797098, 67.473086) rotate(26.389210) translate(-34.797098, -67.473086) " points="31.6566671 61.4016223 36.6517263 62.0766693 37.9375298 73.5445489 32.9424706 72.869502"></polygon>
                <polygon id="矩形" fill="#000000" opacity="0.05" transform="translate(34.697705, 67.405828) rotate(26.389210) translate(-34.697705, -67.405828) " points="32.3897842 61.4468722 35.7198232 61.8969034 37.0056267 73.3647831 33.6755877 72.9147518"></polygon>
                <polygon id="矩形" fill="#F55F44" transform="translate(34.697705, 67.405828) rotate(26.389210) translate(-34.697705, -67.405828) " points="32.6276444 61.4790173 35.481963 61.8647583 36.7677665 73.3326379 33.9134479 72.9468969"></polygon>
                <ellipse id="椭圆形" fill="#DBDBDB" cx="38.5" cy="97" rx="1" ry="1"></ellipse>
                <g id="编组" opacity="0.5" transform="translate(8.000000, 83.000000)" fill="#47E6B1">
                    <rect id="矩形" x="0.82159" y="0" width="1" height="3"></rect>
                    <polygon id="矩形" transform="translate(0.988257, 1.500000) rotate(90.000000) translate(-0.988257, -1.500000) " points="0.723550784 0.555555556 1.25296255 0.555555556 1.25296255 2.44444444 0.723550784 2.44444444"></polygon>
                </g>
                <g id="编组" opacity="0.5" transform="translate(103.000000, 46.000000)" fill="#47E6B1">
                    <rect id="矩形" x="0.82159" y="0" width="1" height="3"></rect>
                    <polygon id="矩形" transform="translate(0.988257, 1.500000) rotate(90.000000) translate(-0.988257, -1.500000) " points="0.723550784 0.555555556 1.25296255 0.555555556 1.25296255 2.44444444 0.723550784 2.44444444"></polygon>
                </g>
                <g id="编组" opacity="0.5" transform="translate(9.000000, 9.000000)" fill="#47E6B1">
                    <rect id="矩形" x="0.82159" y="0" width="1" height="3"></rect>
                    <polygon id="矩形" transform="translate(0.988257, 1.500000) rotate(90.000000) translate(-0.988257, -1.500000) " points="0.723550784 0.555555556 1.25296255 0.555555556 1.25296255 2.44444444 0.723550784 2.44444444"></polygon>
                </g>
                <g id="编组" opacity="0.5" transform="translate(92.000000, 5.000000)" fill="#47E6B1">
                    <rect id="矩形" x="0.82159" y="0" width="1" height="3"></rect>
                    <polygon id="矩形" transform="translate(0.988257, 1.500000) rotate(90.000000) translate(-0.988257, -1.500000) " points="0.723550784 0.555555556 1.25296255 0.555555556 1.25296255 2.44444444 0.723550784 2.44444444"></polygon>
                </g>
                <path d="M5.83628725,44.0168911 C5.58047151,43.9054795 5.44883882,43.6199686 5.53024379,43.3530839 C5.53660684,43.333319 5.54061551,43.3128723 5.54218665,43.2921679 L5.54218665,43.2921679 C5.54957003,43.1708841 5.47659971,43.0590925 5.36260052,43.0170395 C5.24860133,42.9749864 5.12051344,43.0126097 5.0473654,43.1096336 L5.0473654,43.1096336 C5.03511509,43.1263988 5.02488525,43.1445506 5.01688796,43.1637127 C4.90547576,43.4195279 4.61996531,43.5511604 4.35308058,43.4697561 C4.33331569,43.4633927 4.312869,43.4593835 4.29216456,43.4578118 L4.29216456,43.4578118 C4.17088178,43.4504306 4.05909223,43.5234011 4.01703954,43.6373991 C3.97498686,43.7513972 4.01260856,43.8794839 4.10963023,43.9526329 L4.10963023,43.9526329 C4.1263953,43.9648831 4.14454716,43.9751124 4.16370938,43.9831089 C4.4195231,44.0945226 4.55115492,44.3800316 4.46975284,44.6469161 C4.46338931,44.666681 4.45938014,44.6871277 4.45780849,44.7078321 L4.45780849,44.7078321 C4.4504251,44.8291159 4.52339543,44.9409075 4.63739462,44.9829605 C4.75139381,45.0250136 4.8794817,44.9873903 4.95262973,44.8903664 L4.95262973,44.8903664 C4.9648806,44.8736015 4.97511047,44.8554497 4.98310718,44.8362873 C5.09451937,44.5804721 5.38002983,44.4488396 5.64691456,44.5302439 C5.66668016,44.5366066 5.68712725,44.5406157 5.70783207,44.5421882 L5.70783207,44.5421882 C5.82911589,44.5495716 5.94090745,44.4766013 5.98296055,44.3626021 C6.02501364,44.248603 5.98739033,44.1205151 5.8903664,44.0473671 L5.8903664,44.0473671 C5.87360074,44.0351178 5.855449,44.0248885 5.83628725,44.0168911 Z" id="路径" fill="#4D8AF0" opacity="0.5"></path>
                <path d="M28.8362872,10.0168911 C28.5804715,9.90547948 28.4488388,9.61996861 28.5302438,9.35308388 C28.5366068,9.33331896 28.5406155,9.31287227 28.5421866,9.29216787 L28.5421866,9.29216787 C28.54957,9.17088408 28.4765997,9.05909254 28.3626005,9.01703945 C28.2486013,8.97498636 28.1205134,9.01260967 28.0473654,9.10963358 L28.0473654,9.10963358 C28.0351151,9.12639881 28.0248853,9.14455062 28.016888,9.16371272 C27.9054758,9.41952791 27.6199653,9.55116035 27.3530806,9.46975612 C27.3333157,9.46339267 27.312869,9.45938351 27.2921646,9.45781177 L27.2921646,9.45781177 C27.1708818,9.45043064 27.0590922,9.52340107 27.0170395,9.63739914 C26.9749869,9.75139721 27.0126086,9.87948386 27.1096302,9.95263292 L27.1096302,9.95263292 C27.1263953,9.96488308 27.1445472,9.97511243 27.1637094,9.98310886 C27.4195231,10.0945226 27.5511549,10.3800316 27.4697528,10.6469161 C27.4633893,10.666681 27.4593801,10.6871277 27.4578085,10.7078321 L27.4578085,10.7078321 C27.4504251,10.8291159 27.5233954,10.9409075 27.6373946,10.9829605 C27.7513938,11.0250136 27.8794817,10.9873903 27.9526297,10.8903664 L27.9526297,10.8903664 C27.9648806,10.8736015 27.9751105,10.8554497 27.9831072,10.8362873 C28.0945194,10.5804721 28.3800298,10.4488396 28.6469146,10.5302439 C28.6666802,10.5366066 28.6871272,10.5406157 28.7078321,10.5421882 L28.7078321,10.5421882 C28.8291159,10.5495716 28.9409074,10.4766013 28.9829605,10.3626021 C29.0250136,10.248603 28.9873903,10.1205151 28.8903664,10.0473671 L28.8903664,10.0473671 C28.8736007,10.0351178 28.855449,10.0248885 28.8362872,10.0168911 Z" id="路径" fill="#4D8AF0" opacity="0.5"></path>
                <path d="M54.8362872,98.0168911 C54.5804715,97.9054795 54.4488388,97.6199686 54.5302438,97.3530839 C54.5366068,97.333319 54.5406155,97.3128723 54.5421866,97.2921679 L54.5421866,97.2921679 C54.54957,97.1708841 54.4765997,97.0590925 54.3626005,97.0170395 C54.2486013,96.9749864 54.1205134,97.0126097 54.0473654,97.1096336 L54.0473654,97.1096336 C54.0351151,97.1263988 54.0248853,97.1445506 54.016888,97.1637127 C53.9054758,97.4195279 53.6199653,97.5511604 53.3530806,97.4697561 C53.3333157,97.4633927 53.312869,97.4593835 53.2921646,97.4578118 L53.2921646,97.4578118 C53.1708818,97.4504306 53.0590922,97.5234011 53.0170395,97.6373991 C52.9749869,97.7513972 53.0126086,97.8794839 53.1096302,97.9526329 L53.1096302,97.9526329 C53.1263953,97.9648831 53.1445472,97.9751124 53.1637094,97.9831089 C53.4195231,98.0945226 53.5511549,98.3800316 53.4697528,98.6469161 C53.4633893,98.666681 53.4593801,98.6871277 53.4578085,98.7078321 L53.4578085,98.7078321 C53.4504251,98.8291159 53.5233954,98.9409075 53.6373946,98.9829605 C53.7513938,99.0250136 53.8794817,98.9873903 53.9526297,98.8903664 L53.9526297,98.8903664 C53.9648806,98.8736015 53.9751105,98.8554497 53.9831072,98.8362873 C54.0945194,98.5804721 54.3800298,98.4488396 54.6469146,98.5302439 C54.6666802,98.5366066 54.6871272,98.5406157 54.7078321,98.5421882 L54.7078321,98.5421882 C54.8291159,98.5495716 54.9409074,98.4766013 54.9829605,98.3626021 C55.0250136,98.248603 54.9873903,98.1205151 54.8903664,98.0473671 L54.8903664,98.0473671 C54.8736007,98.0351178 54.855449,98.0248885 54.8362872,98.0168911 L54.8362872,98.0168911 Z" id="路径" fill="#4D8AF0" opacity="0.5"></path>
                <circle id="椭圆形" fill="#F55F44" opacity="0.5" cx="100" cy="77" r="1"></circle>
                <circle id="椭圆形" fill="#4D8AF0" opacity="0.5" cx="84" cy="83" r="1"></circle>
                <circle id="椭圆形" fill="#47E6B1" opacity="0.5" cx="18" cy="93" r="1"></circle>
                <circle id="椭圆形" fill="#F55F44" opacity="0.5" cx="57" cy="1" r="1"></circle>
                <path d="M29,62.2922577 L26,68.6443722 C26,68.6443722 27,75.1729344 49.125,74.9964867 C71.25,74.8200391 73,68.6443722 73,68.6443722 L68.875,60.1748862 L56.25,48 L29,62.2922577 Z" id="路径" fill="#F9A826"></path>
                <path d="M29,62.2922577 L26,68.6443722 C26,68.6443722 27,75.1729344 49.125,74.9964867 C71.25,74.8200391 73,68.6443722 73,68.6443722 L68.875,60.1748862 L56.25,48 L29,62.2922577 Z" id="路径" fill="#000000" opacity="0.15"></path>
                <polygon id="路径" fill="#F9A826" points="95 38.2909699 54.8927039 62 6 38.2909699 50.8183119 11 72.8187554 24.5891973 73.6068956 25.0770234"></polygon>
                <polygon id="路径" fill="#000000" opacity="0.15" points="95 38.2909699 54.8927039 62 6 38.2909699 50.8183119 11 72.8187554 24.5891973 73.6068956 25.0770234"></polygon>
                <polygon id="路径" fill="#F5F5F5" points="75 43.9400053 74.0558615 44 73 25 73.9740362 25.4766249"></polygon>
                <path d="M29.5,37.5308189 L26,67 C26,67 51.125,55.7323719 73,67 L69.75,35.7973376 C69.75,35.7973376 40.375,30.770242 29.5,37.5308189 Z" id="路径" fill="#F9A826"></path>
                <ellipse id="椭圆形" fill="#F5F5F5" cx="74.5" cy="47" rx="3.5" ry="3"></ellipse>
            </g>
            <text id="moodle" font-family="DFWaWaSC-W5, Wawati SC" font-size="60" font-weight="normal" fill="#F7B500">
                <tspan x="109.35" y="64">moodle</tspan>
            </text>
            <g id="undraw_Graduation_ktn0备份" transform="translate(-1.000000, 0.000000)" fill-rule="nonzero">
                <ellipse id="椭圆形" fill="#E0E0E0" transform="translate(8.259106, 49.515171) rotate(-63.610790) translate(-8.259106, -49.515171) " cx="8.25910602" cy="49.5151712" rx="5.73476825" ry="1"></ellipse>
                <ellipse id="椭圆形" fill="#E0E0E0" transform="translate(63.715892, 87.077726) rotate(-63.610790) translate(-63.715892, -87.077726) " cx="63.7158919" cy="87.0777259" rx="5.73432287" ry="1"></ellipse>
                <polygon id="矩形" fill="#F55F44" transform="translate(30.570320, 75.724463) rotate(39.547320) translate(-30.570320, -75.724463) " points="28.2496932 70.0883184 31.305389 70.5639857 32.890947 81.360608 29.8352512 80.8849407"></polygon>
                <polygon id="矩形" fill="#000000" opacity="0.05" transform="translate(32.175080, 76.868146) rotate(-166.768900) translate(-32.175080, -76.868146) " points="30.2886531 70.7783683 33.3419775 71.0212443 34.0615077 82.9579242 31.0081833 82.7150481"></polygon>
                <polygon id="矩形" fill="#F55F44" transform="translate(32.337304, 76.920166) rotate(-166.768900) translate(-32.337304, -76.920166) " points="30.6206993 70.8438962 33.3343778 71.0597553 34.053908 82.9964351 31.3402295 82.7805761"></polygon>
                <polygon id="矩形" fill="url(#linearGradient-1)" transform="translate(35.989813, 68.280182) rotate(-63.610790) translate(-35.989813, -68.280182) " points="34.4534158 35.7737687 46.4946902 34.4236749 37.5262103 100.786595 25.4849359 102.136689"></polygon>
                <path d="M62.0158963,93 C60.9196477,92.2953334 5.20562382,55.2265399 6.00859652,55.7604423 C9.10088973,49.4355911 9.9927002,45 9.9927002,45 L66,82.2395577 C66,82.2395577 64.0331469,86.8652774 62.0158963,93 Z" id="路径" fill="#F5F5F5"></path>
                <polygon id="矩形" fill="#000000" opacity="0.05" transform="translate(34.797099, 67.473086) rotate(26.389210) translate(-34.797099, -67.473086) " points="31.4188081 61.3694777 36.8895864 62.1088147 38.1753899 73.5766943 32.7046116 72.8373573"></polygon>
                <polygon id="矩形" fill="#F55F44" transform="translate(34.797098, 67.473086) rotate(26.389210) translate(-34.797098, -67.473086) " points="31.6566671 61.4016223 36.6517263 62.0766693 37.9375298 73.5445489 32.9424706 72.869502"></polygon>
                <polygon id="矩形" fill="#000000" opacity="0.05" transform="translate(34.697705, 67.405828) rotate(26.389210) translate(-34.697705, -67.405828) " points="32.3897842 61.4468722 35.7198232 61.8969034 37.0056267 73.3647831 33.6755877 72.9147518"></polygon>
                <polygon id="矩形" fill="#F55F44" transform="translate(34.697705, 67.405828) rotate(26.389210) translate(-34.697705, -67.405828) " points="32.6276444 61.4790173 35.481963 61.8647583 36.7677665 73.3326379 33.9134479 72.9468969"></polygon>
                <ellipse id="椭圆形" fill="#DBDBDB" cx="38.5" cy="97" rx="1" ry="1"></ellipse>
                <g id="编组" opacity="0.5" transform="translate(8.000000, 83.000000)" fill="#47E6B1">
                    <rect id="矩形" x="0.82159" y="0" width="1" height="3"></rect>
                    <polygon id="矩形" transform="translate(0.988257, 1.500000) rotate(90.000000) translate(-0.988257, -1.500000) " points="0.723550784 0.555555556 1.25296255 0.555555556 1.25296255 2.44444444 0.723550784 2.44444444"></polygon>
                </g>
                <g id="编组" opacity="0.5" transform="translate(103.000000, 46.000000)" fill="#47E6B1">
                    <rect id="矩形" x="0.82159" y="0" width="1" height="3"></rect>
                    <polygon id="矩形" transform="translate(0.988257, 1.500000) rotate(90.000000) translate(-0.988257, -1.500000) " points="0.723550784 0.555555556 1.25296255 0.555555556 1.25296255 2.44444444 0.723550784 2.44444444"></polygon>
                </g>
                <g id="编组" opacity="0.5" transform="translate(9.000000, 9.000000)" fill="#47E6B1">
                    <rect id="矩形" x="0.82159" y="0" width="1" height="3"></rect>
                    <polygon id="矩形" transform="translate(0.988257, 1.500000) rotate(90.000000) translate(-0.988257, -1.500000) " points="0.723550784 0.555555556 1.25296255 0.555555556 1.25296255 2.44444444 0.723550784 2.44444444"></polygon>
                </g>
                <g id="编组" opacity="0.5" transform="translate(92.000000, 5.000000)" fill="#47E6B1">
                    <rect id="矩形" x="0.82159" y="0" width="1" height="3"></rect>
                    <polygon id="矩形" transform="translate(0.988257, 1.500000) rotate(90.000000) translate(-0.988257, -1.500000) " points="0.723550784 0.555555556 1.25296255 0.555555556 1.25296255 2.44444444 0.723550784 2.44444444"></polygon>
                </g>
                <path d="M5.83628725,44.0168911 C5.58047151,43.9054795 5.44883882,43.6199686 5.53024379,43.3530839 C5.53660684,43.333319 5.54061551,43.3128723 5.54218665,43.2921679 L5.54218665,43.2921679 C5.54957003,43.1708841 5.47659971,43.0590925 5.36260052,43.0170395 C5.24860133,42.9749864 5.12051344,43.0126097 5.0473654,43.1096336 L5.0473654,43.1096336 C5.03511509,43.1263988 5.02488525,43.1445506 5.01688796,43.1637127 C4.90547576,43.4195279 4.61996531,43.5511604 4.35308058,43.4697561 C4.33331569,43.4633927 4.312869,43.4593835 4.29216456,43.4578118 L4.29216456,43.4578118 C4.17088178,43.4504306 4.05909223,43.5234011 4.01703954,43.6373991 C3.97498686,43.7513972 4.01260856,43.8794839 4.10963023,43.9526329 L4.10963023,43.9526329 C4.1263953,43.9648831 4.14454716,43.9751124 4.16370938,43.9831089 C4.4195231,44.0945226 4.55115492,44.3800316 4.46975284,44.6469161 C4.46338931,44.666681 4.45938014,44.6871277 4.45780849,44.7078321 L4.45780849,44.7078321 C4.4504251,44.8291159 4.52339543,44.9409075 4.63739462,44.9829605 C4.75139381,45.0250136 4.8794817,44.9873903 4.95262973,44.8903664 L4.95262973,44.8903664 C4.9648806,44.8736015 4.97511047,44.8554497 4.98310718,44.8362873 C5.09451937,44.5804721 5.38002983,44.4488396 5.64691456,44.5302439 C5.66668016,44.5366066 5.68712725,44.5406157 5.70783207,44.5421882 L5.70783207,44.5421882 C5.82911589,44.5495716 5.94090745,44.4766013 5.98296055,44.3626021 C6.02501364,44.248603 5.98739033,44.1205151 5.8903664,44.0473671 L5.8903664,44.0473671 C5.87360074,44.0351178 5.855449,44.0248885 5.83628725,44.0168911 Z" id="路径" fill="#4D8AF0" opacity="0.5"></path>
                <path d="M28.8362872,10.0168911 C28.5804715,9.90547948 28.4488388,9.61996861 28.5302438,9.35308388 C28.5366068,9.33331896 28.5406155,9.31287227 28.5421866,9.29216787 L28.5421866,9.29216787 C28.54957,9.17088408 28.4765997,9.05909254 28.3626005,9.01703945 C28.2486013,8.97498636 28.1205134,9.01260967 28.0473654,9.10963358 L28.0473654,9.10963358 C28.0351151,9.12639881 28.0248853,9.14455062 28.016888,9.16371272 C27.9054758,9.41952791 27.6199653,9.55116035 27.3530806,9.46975612 C27.3333157,9.46339267 27.312869,9.45938351 27.2921646,9.45781177 L27.2921646,9.45781177 C27.1708818,9.45043064 27.0590922,9.52340107 27.0170395,9.63739914 C26.9749869,9.75139721 27.0126086,9.87948386 27.1096302,9.95263292 L27.1096302,9.95263292 C27.1263953,9.96488308 27.1445472,9.97511243 27.1637094,9.98310886 C27.4195231,10.0945226 27.5511549,10.3800316 27.4697528,10.6469161 C27.4633893,10.666681 27.4593801,10.6871277 27.4578085,10.7078321 L27.4578085,10.7078321 C27.4504251,10.8291159 27.5233954,10.9409075 27.6373946,10.9829605 C27.7513938,11.0250136 27.8794817,10.9873903 27.9526297,10.8903664 L27.9526297,10.8903664 C27.9648806,10.8736015 27.9751105,10.8554497 27.9831072,10.8362873 C28.0945194,10.5804721 28.3800298,10.4488396 28.6469146,10.5302439 C28.6666802,10.5366066 28.6871272,10.5406157 28.7078321,10.5421882 L28.7078321,10.5421882 C28.8291159,10.5495716 28.9409074,10.4766013 28.9829605,10.3626021 C29.0250136,10.248603 28.9873903,10.1205151 28.8903664,10.0473671 L28.8903664,10.0473671 C28.8736007,10.0351178 28.855449,10.0248885 28.8362872,10.0168911 Z" id="路径" fill="#4D8AF0" opacity="0.5"></path>
                <path d="M54.8362872,98.0168911 C54.5804715,97.9054795 54.4488388,97.6199686 54.5302438,97.3530839 C54.5366068,97.333319 54.5406155,97.3128723 54.5421866,97.2921679 L54.5421866,97.2921679 C54.54957,97.1708841 54.4765997,97.0590925 54.3626005,97.0170395 C54.2486013,96.9749864 54.1205134,97.0126097 54.0473654,97.1096336 L54.0473654,97.1096336 C54.0351151,97.1263988 54.0248853,97.1445506 54.016888,97.1637127 C53.9054758,97.4195279 53.6199653,97.5511604 53.3530806,97.4697561 C53.3333157,97.4633927 53.312869,97.4593835 53.2921646,97.4578118 L53.2921646,97.4578118 C53.1708818,97.4504306 53.0590922,97.5234011 53.0170395,97.6373991 C52.9749869,97.7513972 53.0126086,97.8794839 53.1096302,97.9526329 L53.1096302,97.9526329 C53.1263953,97.9648831 53.1445472,97.9751124 53.1637094,97.9831089 C53.4195231,98.0945226 53.5511549,98.3800316 53.4697528,98.6469161 C53.4633893,98.666681 53.4593801,98.6871277 53.4578085,98.7078321 L53.4578085,98.7078321 C53.4504251,98.8291159 53.5233954,98.9409075 53.6373946,98.9829605 C53.7513938,99.0250136 53.8794817,98.9873903 53.9526297,98.8903664 L53.9526297,98.8903664 C53.9648806,98.8736015 53.9751105,98.8554497 53.9831072,98.8362873 C54.0945194,98.5804721 54.3800298,98.4488396 54.6469146,98.5302439 C54.6666802,98.5366066 54.6871272,98.5406157 54.7078321,98.5421882 L54.7078321,98.5421882 C54.8291159,98.5495716 54.9409074,98.4766013 54.9829605,98.3626021 C55.0250136,98.248603 54.9873903,98.1205151 54.8903664,98.0473671 L54.8903664,98.0473671 C54.8736007,98.0351178 54.855449,98.0248885 54.8362872,98.0168911 L54.8362872,98.0168911 Z" id="路径" fill="#4D8AF0" opacity="0.5"></path>
                <circle id="椭圆形" fill="#F55F44" opacity="0.5" cx="100" cy="77" r="1"></circle>
                <circle id="椭圆形" fill="#4D8AF0" opacity="0.5" cx="84" cy="83" r="1"></circle>
                <circle id="椭圆形" fill="#47E6B1" opacity="0.5" cx="18" cy="93" r="1"></circle>
                <circle id="椭圆形" fill="#F55F44" opacity="0.5" cx="57" cy="1" r="1"></circle>
                <path d="M29,62.2922577 L26,68.6443722 C26,68.6443722 27,75.1729344 49.125,74.9964867 C71.25,74.8200391 73,68.6443722 73,68.6443722 L68.875,60.1748862 L56.25,48 L29,62.2922577 Z" id="路径" fill="#F9A826"></path>
                <path d="M29,62.2922577 L26,68.6443722 C26,68.6443722 27,75.1729344 49.125,74.9964867 C71.25,74.8200391 73,68.6443722 73,68.6443722 L68.875,60.1748862 L56.25,48 L29,62.2922577 Z" id="路径" fill="#000000" opacity="0.15"></path>
                <polygon id="路径" fill="#F9A826" points="95 38.2909699 54.8927039 62 6 38.2909699 50.8183119 11 72.8187554 24.5891973 73.6068956 25.0770234"></polygon>
                <polygon id="路径" fill="#000000" opacity="0.15" points="95 38.2909699 54.8927039 62 6 38.2909699 50.8183119 11 72.8187554 24.5891973 73.6068956 25.0770234"></polygon>
                <polygon id="路径" fill="#F5F5F5" points="75 43.9400053 74.0558615 44 73 25 73.9740362 25.4766249"></polygon>
                <path d="M29.5,37.5308189 L26,67 C26,67 51.125,55.7323719 73,67 L69.75,35.7973376 C69.75,35.7973376 40.375,30.770242 29.5,37.5308189 Z" id="路径" fill="#F9A826"></path>
                <ellipse id="椭圆形" fill="#F5F5F5" cx="74.5" cy="47" rx="3.5" ry="3"></ellipse>
            </g>
            <text id="moodle备份" font-family="DFWaWaSC-W5, Wawati SC" font-size="60" font-weight="normal" fill="#F7B500">
                <tspan x="109.35" y="64">moodle</tspan>
            </text>
        </g>
    </g>
</svg>
